<svg width="65" height="64" viewBox="0 0 65 64" fill="none" xmlns="http://www.w3.org/2000/svg">
<rect width="64" height="64" rx="8" transform="matrix(-1 0 0 1 64.0469 0)" fill=""/>
<mask id="mask0_2442_120" style="mask-type:alpha" maskUnits="userSpaceOnUse" x="7" y="7" width="50" height="50">
<rect x="7.47656" y="7.42383" width="49.1495" height="49.1495" fill="#D9D9D9"/>
</mask>
<g mask="url(#mask0_2442_120)">
<path d="M19.2527 40.702V28.4146C19.2527 27.9794 19.4 27.6145 19.6945 27.32C19.9891 27.0258 20.354 26.8787 20.7891 26.8787C21.2247 26.8787 21.5895 27.0258 21.8837 27.32C22.1776 27.6145 22.3246 27.9794 22.3246 28.4146V40.702C22.3246 41.1371 22.1773 41.502 21.8827 41.7966C21.5882 42.0908 21.2233 42.2379 20.7881 42.2379C20.3526 42.2379 19.9879 42.0908 19.694 41.7966C19.3998 41.502 19.2527 41.1371 19.2527 40.702ZM30.5161 40.702V28.4146C30.5161 27.9794 30.6634 27.6145 30.958 27.32C31.2525 27.0258 31.6174 26.8787 32.0526 26.8787C32.4881 26.8787 32.8528 27.0258 33.1467 27.32C33.4409 27.6145 33.588 27.9794 33.588 28.4146V40.702C33.588 41.1371 33.4407 41.502 33.1462 41.7966C32.8516 42.0908 32.4867 42.2379 32.0516 42.2379C31.616 42.2379 31.2513 42.0908 30.9575 41.7966C30.6633 41.502 30.5161 41.1371 30.5161 40.702ZM14.6844 49.4055C14.2492 49.4055 13.8845 49.2583 13.5903 48.9637C13.2957 48.6691 13.1484 48.3043 13.1484 47.8691C13.1484 47.4336 13.2957 47.0689 13.5903 46.775C13.8845 46.4808 14.2492 46.3337 14.6844 46.3337H49.4198C49.855 46.3337 50.2197 46.481 50.5139 46.7755C50.8084 47.0701 50.9557 47.4349 50.9557 47.8701C50.9557 48.3056 50.8084 48.6703 50.5139 48.9642C50.2197 49.2584 49.855 49.4055 49.4198 49.4055H14.6844ZM41.7796 40.702V28.4146C41.7796 27.9794 41.9269 27.6145 42.2214 27.32C42.516 27.0258 42.8808 26.8787 43.316 26.8787C43.7515 26.8787 44.1162 27.0258 44.4101 27.32C44.7043 27.6145 44.8514 27.9794 44.8514 28.4146V40.702C44.8514 41.1371 44.7042 41.502 44.4096 41.7966C44.115 42.0908 43.7502 42.2379 43.315 42.2379C42.8795 42.2379 42.5146 42.0908 42.2204 41.7966C41.9265 41.502 41.7796 41.1371 41.7796 40.702ZM49.4986 22.7829H14.4601C14.0956 22.7829 13.7858 22.6556 13.5309 22.4009C13.2759 22.1466 13.1484 21.8376 13.1484 21.4737V20.674C13.1484 20.4075 13.2152 20.1776 13.3486 19.9844C13.4824 19.7916 13.6585 19.6347 13.877 19.5139L30.4255 11.417C30.9368 11.1703 31.4781 11.0469 32.0495 11.0469C32.6209 11.0469 33.1639 11.1703 33.6786 11.417L50.1442 19.4627C50.4016 19.5941 50.6011 19.7779 50.7427 20.0141C50.8847 20.2506 50.9557 20.5046 50.9557 20.7759V21.3309C50.9557 21.75 50.8185 22.0968 50.5441 22.3712C50.2697 22.6457 49.9212 22.7829 49.4986 22.7829Z" fill="#0146B3"/>
</g>
</svg>
