<svg width="65" height="64" viewBox="0 0 65 64" fill="none" xmlns="http://www.w3.org/2000/svg">
<rect width="64" height="64" rx="8" transform="matrix(-1 0 0 1 64.0469 0)" fill=""/>
<mask id="mask0_2442_95" style="mask-type:alpha" maskUnits="userSpaceOnUse" x="7" y="7" width="50" height="50">
<rect x="7.47656" y="7.42383" width="49.1495" height="49.1495" fill="#D9D9D9"/>
</mask>
<g mask="url(#mask0_2442_95)">
<path d="M32.0524 36.2L35.4432 38.2792C35.7398 38.4655 36.0411 38.4505 36.3469 38.2341C36.653 38.0174 36.7681 37.7266 36.6919 37.3617L35.7857 33.4983L38.7864 30.9216C39.0806 30.6598 39.1661 30.3615 39.0429 30.0266C38.9194 29.6918 38.6712 29.5073 38.2985 29.4732L34.3722 29.1148L32.8163 25.4957C32.6753 25.1649 32.4216 24.9996 32.055 24.9996C31.6884 24.9996 31.4329 25.1649 31.2886 25.4957L29.7327 29.1148L25.8063 29.4732C25.4336 29.5073 25.1855 29.6918 25.0619 30.0266C24.9387 30.3615 25.0242 30.6598 25.3184 30.9216L28.3191 33.4983L27.4129 37.3617C27.3368 37.7266 27.4518 38.0174 27.758 38.2341C28.0638 38.4505 28.365 38.4655 28.6616 38.2792L32.0524 36.2ZM26.0439 46.333H21.0255C20.1156 46.333 19.3367 46.0091 18.6889 45.3613C18.0411 44.7135 17.7171 43.9346 17.7171 43.0246V38.0063L14.0504 34.3134C13.7275 33.9827 13.4899 33.6181 13.3377 33.2198C13.1855 32.8219 13.1094 32.4169 13.1094 32.0049C13.1094 31.5933 13.1855 31.1859 13.3377 30.7828C13.4899 30.3797 13.7275 30.0128 14.0504 29.6821L17.7171 25.9892V20.9708C17.7171 20.0609 18.0411 19.282 18.6889 18.6342C19.3367 17.9864 20.1156 17.6625 21.0255 17.6625H26.0439L29.7368 13.9957C30.0675 13.6728 30.432 13.4353 30.8303 13.283C31.2283 13.1308 31.6333 13.0547 32.0453 13.0547C32.4569 13.0547 32.8643 13.1308 33.2673 13.283C33.6704 13.4353 34.0374 13.6728 34.3681 13.9957L38.061 17.6625H43.0793C43.9893 17.6625 44.7682 17.9864 45.416 18.6342C46.0638 19.282 46.3877 20.0609 46.3877 20.9708V25.9892L50.0545 29.6821C50.3774 30.0128 50.6149 30.3773 50.7671 30.7757C50.9194 31.1736 50.9955 31.5786 50.9955 31.9906C50.9955 32.4022 50.9194 32.8096 50.7671 33.2127C50.6149 33.6158 50.3774 33.9827 50.0545 34.3134L46.3877 38.0063V43.0246C46.3877 43.9346 46.0638 44.7135 45.416 45.3613C44.7682 46.0091 43.9893 46.333 43.0793 46.333H38.061L34.3681 49.9998C34.0374 50.3227 33.6728 50.5602 33.2745 50.7125C32.8765 50.8647 32.4716 50.9408 32.0596 50.9408C31.648 50.9408 31.2406 50.8647 30.8375 50.7125C30.4344 50.5602 30.0675 50.3227 29.7368 49.9998L26.0439 46.333Z" fill="#0146B3"/>
</g>
</svg>
