<svg width="65" height="64" viewBox="0 0 65 64" fill="none" xmlns="http://www.w3.org/2000/svg">
<rect width="64" height="64" rx="8" transform="matrix(-1 0 0 1 64.0469 0)" fill=""/>
<mask id="mask0_2442_105" style="mask-type:alpha" maskUnits="userSpaceOnUse" x="7" y="7" width="50" height="50">
<rect x="7.47656" y="7.42383" width="49.1495" height="49.1495" fill="#D9D9D9"/>
</mask>
<g mask="url(#mask0_2442_105)">
<path d="M25.1765 40.0319L34.711 37.1413C35.3148 36.9498 35.8314 36.6394 36.2608 36.21C36.6902 35.7806 37.0006 35.2641 37.1921 34.6603L40.0868 25.1217C40.1864 24.7752 40.1032 24.4701 39.8369 24.2063C39.5707 23.9424 39.2654 23.8617 38.921 23.9641L29.3865 26.8547C28.7827 27.0462 28.2661 27.3566 27.8368 27.786C27.4074 28.2154 27.097 28.7319 26.9055 29.3357L24.0108 38.8743C23.9111 39.2208 23.9944 39.5259 24.2606 39.7897C24.5269 40.0536 24.8322 40.1343 25.1765 40.0319ZM32.0442 34.6761C31.2991 34.6761 30.6673 34.4152 30.1488 33.8933C29.63 33.3718 29.3706 32.7385 29.3706 31.9934C29.3706 31.2483 29.6316 30.6165 30.1535 30.0981C30.675 29.5793 31.3083 29.3199 32.0534 29.3199C32.7985 29.3199 33.4303 29.5808 33.9487 30.1027C34.4675 30.6242 34.7269 31.2575 34.7269 32.0026C34.7269 32.7477 34.466 33.3795 33.9441 33.8979C33.4226 34.4167 32.7893 34.6761 32.0442 34.6761ZM32.0524 51.453C29.3614 51.453 26.8321 50.9424 24.4644 49.9212C22.0967 48.9 20.0372 47.5141 18.2859 45.7635C16.5346 44.0128 15.148 41.9542 14.1261 39.5875C13.1045 37.2208 12.5938 34.6922 12.5938 32.0016C12.5938 29.3106 13.1044 26.7813 14.1256 24.4136C15.1468 22.0459 16.5327 19.9864 18.2833 18.2351C20.0339 16.4838 22.0926 15.0972 24.4593 14.0753C26.826 13.0537 29.3546 12.543 32.0452 12.543C34.7361 12.543 37.2655 13.0536 39.6332 14.0748C42.0009 15.096 44.0604 16.4819 45.8117 18.2325C47.563 19.9832 48.9496 22.0418 49.9715 24.4085C50.993 26.7752 51.5038 29.3038 51.5038 31.9944C51.5038 34.6854 50.9932 37.2147 49.972 39.5824C48.9508 41.9501 47.5648 44.0096 45.8142 45.7609C44.0636 47.5122 42.005 48.8988 39.6383 49.9207C37.2716 50.9422 34.743 51.453 32.0524 51.453Z" fill="#0146B3"/>
</g>
</svg>
