<svg width="65" height="64" viewBox="0 0 65 64" fill="none" xmlns="http://www.w3.org/2000/svg">
<rect width="64" height="64" rx="8" transform="matrix(-1 0 0 1 64.0469 0)" fill=""/>
<mask id="mask0_2442_125" style="mask-type:alpha" maskUnits="userSpaceOnUse" x="7" y="7" width="50" height="50">
<rect x="7.47656" y="7.42383" width="49.1495" height="49.1495" fill="#D9D9D9"/>
</mask>
<g mask="url(#mask0_2442_125)">
<path d="M21.0106 49.8424L22.7391 45.955C22.209 45.5666 21.6991 45.1735 21.2093 44.7759C20.7195 44.3779 20.2502 43.9414 19.8013 43.4663C19.5546 43.5687 19.3064 43.6455 19.0569 43.6967C18.8074 43.7479 18.5489 43.7735 18.2813 43.7735C17.2338 43.7735 16.3351 43.3987 15.5852 42.6492C14.8357 41.8996 14.4609 41.0009 14.4609 39.9531C14.4609 39.3363 14.5963 38.7628 14.8669 38.2324C15.1373 37.702 15.5086 37.2622 15.981 36.913C15.7079 36.128 15.5137 35.3344 15.3984 34.5323C15.283 33.7302 15.2253 32.8855 15.2253 31.998C15.2253 31.1106 15.283 30.2659 15.3984 29.4638C15.5137 28.6617 15.7079 27.8681 15.981 27.0831C15.5086 26.7339 15.1373 26.2941 14.8669 25.7637C14.5963 25.2333 14.4609 24.6597 14.4609 24.043C14.4609 22.9951 14.8357 22.0965 15.5852 21.3469C16.3351 20.5974 17.2338 20.2226 18.2813 20.2226C18.5489 20.2226 18.8074 20.2482 19.0569 20.2994C19.3064 20.3506 19.5546 20.4274 19.8013 20.5298C20.9277 19.3011 22.2097 18.2739 23.6473 17.4482C25.0846 16.6226 26.6224 16.0115 28.2607 15.6149C28.4051 14.6698 28.8416 13.8755 29.5703 13.2321C30.2987 12.5891 31.1356 12.2676 32.081 12.2676C33.0262 12.2676 33.8629 12.5879 34.5913 13.2286C35.32 13.8689 35.7565 14.6512 35.9009 15.5754C37.5655 15.9721 39.1164 16.5779 40.5537 17.393C41.9913 18.2084 43.2733 19.2198 44.3997 20.4274C44.6464 20.325 44.8828 20.2549 45.1088 20.217C45.3344 20.1788 45.5706 20.1597 45.8173 20.1597C46.8648 20.1597 47.7635 20.5344 48.5134 21.284C49.2629 22.0335 49.6377 22.9322 49.6377 23.98C49.6377 24.5968 49.5076 25.1598 49.2476 25.669C48.9878 26.1786 48.6322 26.608 48.1806 26.9571C48.4537 27.763 48.6479 28.5828 48.7632 29.4167C48.8789 30.2502 48.9368 31.1106 48.9368 31.998C48.9368 32.8855 48.8789 33.7473 48.7632 34.5835C48.6479 35.4197 48.4537 36.2304 48.1806 37.0154C48.6189 37.3646 48.9648 37.7873 49.2184 38.2836C49.4716 38.7798 49.5983 39.3363 49.5983 39.9531C49.5983 41.0009 49.2235 41.8996 48.474 42.6492C47.7244 43.3987 46.8257 43.7735 45.7779 43.7735C45.5311 43.7735 45.2949 43.7511 45.0693 43.7064C44.8434 43.6617 44.607 43.5948 44.3602 43.5057C43.9114 43.9808 43.4539 44.4278 42.9876 44.8466C42.5217 45.2654 42 45.669 41.4225 46.0574L43.0685 49.8736C43.2761 50.3228 43.2433 50.7443 42.9702 51.1382C42.6972 51.5317 42.319 51.7285 41.8357 51.7285C41.5524 51.7285 41.3038 51.6524 41.0898 51.5002C40.8757 51.3479 40.7136 51.151 40.6034 50.9094L39.0593 47.3414C38.5289 47.5858 38.009 47.7945 37.4998 47.9676C36.9905 48.1409 36.4576 48.292 35.9009 48.4207C35.7565 49.3449 35.32 50.1272 34.5913 50.7675C33.8629 51.4082 33.0262 51.7285 32.081 51.7285C31.1356 51.7285 30.2987 51.407 29.5703 50.764C28.8416 50.1206 28.4051 49.3263 28.2607 48.3812C27.6832 48.2526 27.1345 48.1015 26.6147 47.9281C26.0949 47.7551 25.5698 47.5464 25.0394 47.302L23.4558 50.9411C23.3456 51.1828 23.1783 51.3744 22.9541 51.516C22.7295 51.6577 22.486 51.7285 22.2235 51.7285C21.7402 51.7285 21.3654 51.5265 21.0992 51.1223C20.8326 50.7179 20.8031 50.2912 21.0106 49.8424ZM23.6294 43.8052L27.2367 35.7314C26.8244 35.2088 26.5048 34.6313 26.2778 33.9988C26.0508 33.366 25.9374 32.6991 25.9374 31.998C25.9374 30.3283 26.5437 28.8869 27.7564 27.6739C28.9694 26.4609 30.411 25.8544 32.081 25.8544C33.7508 25.8544 35.1921 26.4609 36.4052 27.6739C37.6179 28.8869 38.2242 30.3283 38.2242 31.998C38.2242 32.6991 38.099 33.3797 37.8484 34.0398C37.5976 34.7002 37.2556 35.2982 36.8224 35.8338L40.4298 43.8446C40.8158 43.5583 41.1867 43.2714 41.5423 42.984C41.8983 42.6963 42.239 42.366 42.5642 41.9933C42.3414 41.7073 42.1845 41.389 42.0937 41.0385C42.0033 40.688 41.9581 40.3262 41.9581 39.9531C41.9581 38.8609 42.363 37.9388 43.173 37.1869C43.9829 36.4346 44.9144 36.0966 45.9673 36.1727C46.1721 35.4901 46.3322 34.8093 46.4476 34.1304C46.5633 33.4519 46.6211 32.7411 46.6211 31.998C46.6211 31.255 46.5633 30.5336 46.4476 29.8339C46.3322 29.1342 46.1721 28.4431 45.9673 27.7604C44.9144 27.8365 43.9894 27.4985 43.1924 26.7462C42.3958 25.9943 41.9975 25.0722 41.9975 23.98C41.9975 23.6332 42.0565 23.2952 42.1746 22.9658C42.2927 22.6361 42.4357 22.3282 42.6037 22.0422C41.6138 21.0128 40.5119 20.1535 39.2978 19.4644C38.0834 18.7753 36.791 18.243 35.4207 17.8676C35.1107 18.487 34.6624 18.982 34.0757 19.3523C33.4886 19.7226 32.8238 19.9078 32.081 19.9078C31.338 19.9078 30.6729 19.7226 30.0859 19.3523C29.4992 18.982 29.0508 18.487 28.7409 17.8676C27.3286 18.243 26.0152 18.7806 24.8008 19.4803C23.5867 20.18 22.4848 21.0549 21.495 22.1052C21.6629 22.3912 21.8059 22.6991 21.924 23.0288C22.0421 23.3581 22.1011 23.6962 22.1011 24.043C22.1011 25.1482 21.7067 26.0651 20.918 26.7938C20.1288 27.5222 19.208 27.8654 18.1553 27.8234C17.9506 28.506 17.797 29.1868 17.6946 29.8657C17.5922 30.5442 17.541 31.255 17.541 31.998C17.541 32.7411 17.5922 33.4519 17.6946 34.1304C17.797 34.8093 17.9506 35.4901 18.1553 36.1727C19.1817 36.0966 20.0959 36.4312 20.898 37.1767C21.7001 37.9224 22.1011 38.8479 22.1011 39.9531C22.1011 40.3262 22.0559 40.6709 21.9655 40.9873C21.8747 41.3037 21.7178 41.6049 21.495 41.8909C21.8202 42.2636 22.1609 42.5978 22.5169 42.8934C22.8725 43.1886 23.2433 43.4926 23.6294 43.8052ZM25.9921 45.1517C26.4201 45.3619 26.8632 45.5451 27.3212 45.701C27.7796 45.8574 28.2528 45.9999 28.7409 46.1285C29.0508 45.5091 29.4992 45.0141 30.0859 44.6438C30.6729 44.2735 31.338 44.0883 32.081 44.0883C32.8238 44.0883 33.4886 44.2735 34.0757 44.6438C34.6624 45.0141 35.1107 45.5091 35.4207 46.1285C35.8958 45.9999 36.3485 45.864 36.7789 45.721C37.2097 45.578 37.639 45.4014 38.0671 45.1911L34.6645 37.5509C34.2679 37.7345 33.8576 37.8789 33.4337 37.9841C33.0098 38.0892 32.5589 38.1417 32.081 38.1417C31.582 38.1417 31.1086 38.0839 30.6608 37.9682C30.2134 37.8528 29.7913 37.6796 29.3947 37.4485L25.9921 45.1517Z" fill="#0146B3"/>
</g>
</svg>
