<svg width="65" height="64" viewBox="0 0 65 64" fill="none" xmlns="http://www.w3.org/2000/svg">
<rect width="64" height="64" rx="8" transform="matrix(-1 0 0 1 64.0469 0)" fill=""/>
<mask id="mask0_2442_130" style="mask-type:alpha" maskUnits="userSpaceOnUse" x="7" y="7" width="50" height="50">
<rect x="7.47656" y="7.42383" width="49.1495" height="49.1495" fill="#D9D9D9"/>
</mask>
<g mask="url(#mask0_2442_130)">
<path d="M10.2725 43.8522C9.77038 43.8522 9.34937 43.6824 9.00941 43.3428C8.6698 43.0028 8.5 42.5818 8.5 42.0797V41.3553C8.5 39.9927 9.21147 38.8736 10.6344 37.9977C12.0577 37.1223 13.9128 36.6845 16.1996 36.6845C16.5774 36.6845 16.958 36.6963 17.3413 36.7199C17.7246 36.7434 18.1106 36.7893 18.4994 36.8576C18.1004 37.4958 17.8043 38.1582 17.6111 38.8446C17.4183 39.5313 17.3218 40.2356 17.3218 40.9575V43.8522H10.2725ZM22.6464 43.8522C22.1132 43.8522 21.6702 43.6747 21.3173 43.3197C20.964 42.9651 20.7874 42.5255 20.7874 42.0009V41.0363C20.7874 40.0776 21.0565 39.2012 21.5948 38.4073C22.133 37.6131 22.9088 36.9207 23.9222 36.3302C24.9356 35.7394 26.1329 35.2964 27.5142 35.0012C28.8952 34.7056 30.4048 34.5578 32.0431 34.5578C33.7129 34.5578 35.2382 34.7056 36.6192 35.0012C38.0001 35.2964 39.1973 35.7394 40.2107 36.3302C41.2244 36.9207 41.9951 37.6131 42.5227 38.4073C43.0504 39.2012 43.3143 40.0776 43.3143 41.0363V42.0009C43.3143 42.5255 43.1368 42.9651 42.7818 43.3197C42.4272 43.6747 41.9876 43.8522 41.463 43.8522H22.6464ZM46.7798 43.8522V40.96C46.7798 40.189 46.6887 39.4635 46.5064 38.7836C46.3238 38.1037 46.0501 37.4617 45.6852 36.8576C46.0869 36.7893 46.4709 36.7434 46.8372 36.7199C47.2034 36.6963 47.565 36.6845 47.922 36.6845C50.2088 36.6845 52.0605 37.1172 53.477 37.9824C54.8934 38.8473 55.6016 39.9716 55.6016 41.3553V42.0797C55.6016 42.5818 55.4318 43.0028 55.0922 43.3428C54.7523 43.6824 54.3313 43.8522 53.8292 43.8522H46.7798ZM16.194 34.6955C15.2287 34.6955 14.4041 34.3523 13.7201 33.6659C13.0361 32.9795 12.6941 32.1544 12.6941 31.1905C12.6941 30.214 13.0375 29.3891 13.7242 28.7157C14.4106 28.0422 15.2357 27.7055 16.1996 27.7055C17.1761 27.7055 18.0043 28.0422 18.6842 28.7157C19.3644 29.3891 19.7046 30.2161 19.7046 31.1967C19.7046 32.1483 19.368 32.9693 18.6949 33.6598C18.0222 34.3503 17.1885 34.6955 16.194 34.6955ZM47.922 34.6955C46.9663 34.6955 46.1433 34.3503 45.4528 33.6598C44.7623 32.9693 44.4171 32.1483 44.4171 31.1967C44.4171 30.2161 44.7623 29.3891 45.4528 28.7157C46.1433 28.0422 46.9675 27.7055 47.9256 27.7055C48.913 27.7055 49.7435 28.0422 50.4169 28.7157C51.0903 29.3891 51.427 30.214 51.427 31.1905C51.427 32.1544 51.0912 32.9795 50.4194 33.6659C49.7477 34.3523 48.9153 34.6955 47.922 34.6955ZM32.058 33.0219C30.5828 33.0219 29.3268 32.5049 28.2899 31.4711C27.2529 30.4376 26.7345 29.1824 26.7345 27.7055C26.7345 26.199 27.2512 24.9363 28.2847 23.9174C29.3186 22.8983 30.5739 22.3887 32.0508 22.3887C33.5571 22.3887 34.8197 22.8976 35.8389 23.9154C36.8577 24.9328 37.3672 26.1938 37.3672 27.6984C37.3672 29.1732 36.8584 30.4292 35.841 31.4665C34.8232 32.5034 33.5622 33.0219 32.058 33.0219Z" fill="#0146B3"/>
</g>
</svg>
