<svg width="65" height="64" viewBox="0 0 65 64" fill="none" xmlns="http://www.w3.org/2000/svg">
<rect width="64" height="64" rx="8" transform="matrix(-1 0 0 1 64.0469 0)" fill=""/>
<mask id="mask0_2442_100" style="mask-type:alpha" maskUnits="userSpaceOnUse" x="7" y="7" width="50" height="50">
<rect x="7.47656" y="7.42383" width="49.1495" height="49.1495" fill="#D9D9D9"/>
</mask>
<g mask="url(#mask0_2442_100)">
<path d="M46.362 48.4259L35.8112 37.9146C35.5146 37.6309 35.3663 37.2744 35.3663 36.845C35.3663 36.416 35.5146 36.053 35.8112 35.7561C36.1078 35.4595 36.4676 35.3112 36.8905 35.3112C37.313 35.3112 37.6726 35.4595 37.9692 35.7561L48.5005 46.2874C48.7838 46.5707 48.9254 46.9302 48.9254 47.3661C48.9254 47.802 48.7771 48.1617 48.4805 48.4454C48.1969 48.729 47.8438 48.8676 47.4213 48.8611C46.9987 48.8543 46.6456 48.7092 46.362 48.4259ZM22.3422 44.901C21.5968 45.6464 20.7317 45.9903 19.747 45.9326C18.7626 45.8749 18.0078 45.4286 17.4825 44.5938C15.5268 41.4458 14.5482 38.0366 14.5469 34.3661C14.5455 30.6955 15.5215 27.2942 17.4749 24.1619C17.3803 25.4012 17.5162 26.7527 17.8824 28.2162C18.2486 29.6801 18.794 31.1847 19.5187 32.7298C20.2433 34.2749 21.1169 35.8233 22.1395 37.3749C23.162 38.9266 24.2616 40.4034 25.4381 41.8056L22.3422 44.901ZM27.5449 39.6983C26.0117 38.0995 24.7126 36.3786 23.6477 34.5355C22.5832 32.6924 21.7766 30.9123 21.2281 29.1951C20.6793 27.478 20.418 25.9197 20.4443 24.5203C20.4706 23.1209 20.829 22.0759 21.5195 21.3855C22.2099 20.6742 23.2549 20.3066 24.6543 20.2827C26.0537 20.2591 27.6138 20.525 29.3347 21.0803C31.0557 21.6356 32.8344 22.4541 34.6711 23.5358C36.5077 24.6174 38.2189 25.9183 39.8046 27.4385L27.5449 39.6983ZM44.6566 17.4197C45.4915 17.945 45.943 18.6945 46.0113 19.6683C46.0795 20.6424 45.7408 21.5024 44.995 22.2481L41.9114 25.3318C40.5437 24.1686 39.0906 23.0862 37.5519 22.0848C36.0133 21.0831 34.4833 20.2113 32.9621 19.4697C31.4405 18.728 29.9512 18.1588 28.4941 17.7622C27.037 17.366 25.6953 17.2084 24.4689 17.2897C27.5804 15.4728 30.9463 14.5736 34.5666 14.5921C38.1873 14.6105 41.5506 15.553 44.6566 17.4197Z" fill="#0146B3"/>
</g>
</svg>
