<svg width="65" height="64" viewBox="0 0 65 64" fill="none" xmlns="http://www.w3.org/2000/svg">
<rect width="64" height="64" rx="8" transform="matrix(-1 0 0 1 64.0469 0)" fill=""/>
<mask id="mask0_2442_115" style="mask-type:alpha" maskUnits="userSpaceOnUse" x="7" y="7" width="50" height="50">
<rect x="7.47656" y="7.42383" width="49.1495" height="49.1495" fill="#D9D9D9"/>
</mask>
<g mask="url(#mask0_2442_115)">
<path d="M23.8455 22.2718L26.37 13.903V11.5203C26.37 11.0851 26.5173 10.7204 26.8119 10.4262C27.1064 10.1317 27.4713 9.98438 27.9065 9.98438C28.342 9.98438 28.7067 10.1317 29.0006 10.4262C29.2948 10.7204 29.4419 11.0851 29.4419 11.5203V14.0802H34.6128V11.5203C34.6128 11.0851 34.7601 10.7204 35.0546 10.4262C35.3492 10.1317 35.7141 9.98438 36.1493 9.98438C36.5848 9.98438 36.9495 10.1317 37.2433 10.4262C37.5376 10.7204 37.6847 11.0851 37.6847 11.5203V13.647L40.2604 22.2718H23.8455ZM12.0859 48.8944V31.9993C12.0859 31.5641 12.2332 31.1994 12.5278 30.9052C12.8223 30.6106 13.1872 30.4634 13.6224 30.4634C14.0579 30.4634 14.4226 30.6106 14.7165 30.9052C15.0107 31.1994 15.1578 31.5641 15.1578 31.9993V34.5591H20.1398L20.4547 33.5352H43.6512L43.9661 34.5591H48.9481V31.9993C48.9481 31.5641 49.0954 31.1994 49.3899 30.9052C49.6845 30.6106 50.0494 30.4634 50.4845 30.4634C50.9201 30.4634 51.2847 30.6106 51.5786 30.9052C51.8728 31.1994 52.0199 31.5641 52.0199 31.9993V48.8944C52.0199 49.732 51.7174 50.4534 51.1122 51.0586C50.5071 51.6637 49.7857 51.9663 48.9481 51.9663H36.4636C35.9393 51.9663 35.4997 51.789 35.1448 51.4343C34.7901 51.0794 34.6128 50.6398 34.6128 50.1155V44.2867C34.6128 43.575 34.364 42.9705 33.8664 42.4732C33.3691 41.9756 32.7646 41.7268 32.0529 41.7268C31.3413 41.7268 30.7368 41.9756 30.2395 42.4732C29.7419 42.9705 29.4931 43.575 29.4931 44.2867V50.1155C29.4931 50.6398 29.3158 51.0794 28.9611 51.4343C28.6062 51.789 28.1665 51.9663 27.6423 51.9663H15.1578C14.3202 51.9663 13.5988 51.6637 12.9937 51.0586C12.3885 50.4534 12.0859 49.732 12.0859 48.8944ZM21.388 30.4634L22.9121 25.3436H41.1937L42.7179 30.4634H21.388Z" fill="#0146B3"/>
</g>
</svg>
