<svg width="65" height="64" viewBox="0 0 65 64" fill="none" xmlns="http://www.w3.org/2000/svg">
<rect width="64" height="64" rx="8" transform="matrix(-1 0 0 1 64.0469 0)" fill=""/>
<mask id="mask0_2442_135" style="mask-type:alpha" maskUnits="userSpaceOnUse" x="7" y="7" width="50" height="50">
<rect x="7.47656" y="7.42383" width="49.1495" height="49.1495" fill="#D9D9D9"/>
</mask>
<g mask="url(#mask0_2442_135)">
<path d="M32.0293 47.7872C31.5907 47.7872 31.1503 47.7085 30.7079 47.5511C30.2656 47.3935 29.8763 47.1467 29.5401 46.8108L26.5983 44.1368C22.9674 40.826 19.7256 37.5736 16.8728 34.3796C14.0201 31.1855 12.5938 27.7638 12.5938 24.1145C12.5938 21.2082 13.5737 18.7749 15.5335 16.8148C17.4937 14.8549 19.9269 13.875 22.8332 13.875C24.4845 13.875 26.1157 14.2557 27.7267 15.0172C29.3374 15.7787 30.7781 17.0153 32.0488 18.727C33.3195 17.0153 34.7602 15.7787 36.3709 15.0172C37.9819 14.2557 39.613 13.875 41.2643 13.875C44.1706 13.875 46.6039 14.8549 48.5641 16.8148C50.5239 18.7749 51.5038 21.2082 51.5038 24.1145C51.5038 27.8034 50.0532 31.2632 47.152 34.4937C44.2508 37.7243 41.0162 40.9491 37.4481 44.168L34.5375 46.8108C34.2016 47.1467 33.8093 47.3935 33.3605 47.5511C32.9113 47.7085 32.4676 47.7872 32.0293 47.7872Z" fill="#0146B3"/>
</g>
</svg>
