<svg width="65" height="64" viewBox="0 0 65 64" fill="none" xmlns="http://www.w3.org/2000/svg">
<rect width="64" height="64" rx="8" transform="matrix(-1 0 0 1 64.0469 0)" fill=""/>
<mask id="mask0_2442_110" style="mask-type:alpha" maskUnits="userSpaceOnUse" x="7" y="7" width="50" height="50">
<rect x="7.47656" y="7.42383" width="49.1495" height="49.1495" fill="#D9D9D9"/>
</mask>
<g mask="url(#mask0_2442_110)">
<path d="M24.9843 54.2301C24.3962 54.2301 23.7163 53.9517 22.9446 53.395C22.1725 52.8387 21.474 52.1666 20.8491 51.3789L16.9069 46.3103C16.6864 46.0346 16.5952 45.7345 16.6335 45.4103C16.6714 45.086 16.8282 44.8137 17.104 44.5932C17.3798 44.3727 17.6849 44.2848 18.0194 44.3295C18.3542 44.3739 18.6319 44.534 18.8524 44.8097L20.5501 46.9954L26.812 42.5335L30.2853 24.7521L25.4174 26.7176V31.9986C25.4174 32.4345 25.2705 32.7993 24.9766 33.0932C24.6824 33.3874 24.3174 33.5345 23.8815 33.5345C23.446 33.5345 23.0811 33.3874 22.7869 33.0932C22.493 32.7993 22.3461 32.4345 22.3461 31.9986V25.9496C22.3461 25.5793 22.4556 25.2399 22.6748 24.9313C22.8939 24.6228 23.1716 24.3898 23.5078 24.2325L30.4588 21.3301C31.5114 20.8785 32.2806 20.5845 32.7663 20.448C33.252 20.3114 33.7036 20.2432 34.121 20.2432C34.7459 20.2432 35.3211 20.4046 35.8463 20.7275C36.3713 21.0504 36.8123 21.4862 37.1693 22.0351L39.1977 25.2605C39.9879 26.4654 40.9888 27.5193 42.2005 28.4225C43.4121 29.3259 44.8083 29.9377 46.3889 30.2579C46.8248 30.3681 47.1931 30.5704 47.4938 30.8646C47.7941 31.1585 47.9443 31.5233 47.9443 31.9592C47.9443 32.395 47.7941 32.7514 47.4938 33.0282C47.1931 33.3053 46.8354 33.4163 46.4207 33.361C44.538 33.0749 42.7781 32.4324 41.1412 31.4334C39.5042 30.4344 38.1028 29.1222 36.9368 27.4968L35.4127 35.1964L39.1977 38.8155C39.3892 39.0074 39.5297 39.2181 39.6191 39.4478C39.7082 39.6775 39.7527 39.9158 39.7527 40.1625V51.7685C40.5142 51.7477 41.1352 51.6821 41.6158 51.5719C42.0964 51.4617 42.6005 51.2673 43.1281 50.9888C43.291 50.9075 43.4386 50.8399 43.571 50.786C43.7038 50.7324 43.8318 50.7056 43.955 50.7056C44.3147 50.7056 44.6101 50.8316 44.8412 51.0835C45.0723 51.3354 45.1878 51.6098 45.1878 51.9067C45.1878 52.1535 45.1248 52.3747 44.9989 52.5703C44.8726 52.7658 44.6796 52.9358 44.4199 53.0802C43.7239 53.4764 43.0118 53.7638 42.2834 53.9423C41.5547 54.1212 40.7441 54.2106 39.8515 54.2106H33.609C33.2575 54.2106 32.9661 54.0951 32.7351 53.864C32.504 53.6329 32.3885 53.3415 32.3885 52.9896C32.3885 52.6377 32.504 52.3462 32.7351 52.1151C32.9661 51.884 33.2575 51.7685 33.609 51.7685H36.6814V42.0292L31.5534 37.126L29.8957 43.644C29.8274 43.8566 29.7347 44.0536 29.6177 44.2348C29.5009 44.416 29.3467 44.5683 29.1548 44.6915L22.4797 49.4452L22.9482 50.0831C23.2949 50.5582 23.6678 50.929 24.0668 51.1956C24.4658 51.4622 24.9109 51.6808 25.4021 51.8514C25.6567 51.9828 25.8562 52.1325 26.0006 52.3004C26.1449 52.4684 26.2171 52.6941 26.2171 52.9778C26.2171 53.3164 26.0963 53.6097 25.8546 53.8579C25.6133 54.106 25.3232 54.2301 24.9843 54.2301ZM37.1928 18.3724C36.1586 18.3724 35.27 18.0009 34.527 17.2578C33.7839 16.5148 33.4124 15.626 33.4124 14.5915C33.4124 13.5569 33.7839 12.6682 34.527 11.9251C35.27 11.1821 36.1586 10.8105 37.1928 10.8105C38.2274 10.8105 39.1161 11.1821 39.8592 11.9251C40.6022 12.6682 40.9738 13.5569 40.9738 14.5915C40.9738 15.626 40.6022 16.5148 39.8592 17.2578C39.1161 18.0009 38.2274 18.3724 37.1928 18.3724Z" fill="#0146B3"/>
</g>
</svg>
