<?xml version="1.0" encoding="utf-8"?>
<!-- Generator: Adobe Illustrator 27.6.1, SVG Export Plug-In . SVG Version: 6.00 Build 0)  -->
<svg version="1.1" id="Layer_1" xmlns="http://www.w3.org/2000/svg" xmlns:xlink="http://www.w3.org/1999/xlink" x="0px" y="0px"
	 viewBox="0 0 158.6 14.1" style="enable-background:new 0 0 158.6 14.1;" xml:space="preserve">
<style type="text/css">
	.st0{fill:#46B301;}
</style>
<g>
	<path class="st0" d="M156.1,6.9c-0.8,0.4-1.6,0.3-2.5,0.2c-5.8-0.7-11.5-1-17.3-0.7c-2.5,0.2-5,0.1-7.6,0.2
		c-13.5,0.5-27.1,0.3-40.6,0.3c-9.4,0-18.9-0.1-28.3,0.1c-9.2,0.2-18.4,0.6-27.6,1.8c-6.8,0.9-13.7,1.8-20.5,3.1
		c-2.1,0.4-4.2,0.5-6.3,0.4c-0.1,0-0.2,0-0.2,0C4.1,12,2.8,12,2.5,10.7c-0.3-1.4,1.1-1.6,2.1-2C8,7.3,11.4,6.1,14.9,5.2
		C20.3,3.9,25.7,3,31.2,2.6c1.4-0.1,2.7-0.3,4.1-0.3c0.8,0,1.6,0.1,2.4,0.5c0.5,0.3,1.1,0.2,1.7,0.2c8.1-0.8,16.3-0.9,24.4-1.1
		c8.2-0.2,16.4,0,24.6-0.1c6.5-0.1,13,0.2,19.5,0.4c7.6,0.2,15.1,0.6,22.7,1.2c8.3,0.7,16.6,1.3,24.7,3.3
		C155.5,6.7,155.8,6.8,156.1,6.9z"/>
</g>
</svg>
