<svg width="53" height="53" viewBox="0 0 53 53" fill="none" xmlns="http://www.w3.org/2000/svg">
<rect width="52.0859" height="52.0859" rx="8" transform="matrix(-1 0 0 1 52.5234 0.530273)" fill="url(#paint0_linear_527_4421)"/>
<mask id="mask0_527_4421" style="mask-type:alpha" maskUnits="userSpaceOnUse" x="6" y="6" width="41" height="41">
<rect x="6.48047" y="6.57324" width="40" height="40" fill="#D9D9D9"/>
</mask>
<g mask="url(#mask0_527_4421)">
<path d="M16.0656 33.657V23.657C16.0656 23.3029 16.1854 23.0059 16.4252 22.7662C16.6649 22.5268 16.9618 22.407 17.316 22.407C17.6704 22.407 17.9674 22.5268 18.2068 22.7662C18.446 23.0059 18.5656 23.3029 18.5656 23.657V33.657C18.5656 34.0112 18.4457 34.3082 18.206 34.5479C17.9663 34.7873 17.6693 34.907 17.3152 34.907C16.9607 34.907 16.6639 34.7873 16.4247 34.5479C16.1853 34.3082 16.0656 34.0112 16.0656 33.657ZM25.2322 33.657V23.657C25.2322 23.3029 25.3521 23.0059 25.5918 22.7662C25.8315 22.5268 26.1285 22.407 26.4827 22.407C26.8371 22.407 27.1339 22.5268 27.3731 22.7662C27.6125 23.0059 27.7322 23.3029 27.7322 23.657V33.657C27.7322 34.0112 27.6124 34.3082 27.3727 34.5479C27.1329 34.7873 26.836 34.907 26.4818 34.907C26.1274 34.907 25.8306 34.7873 25.5914 34.5479C25.352 34.3082 25.2322 34.0112 25.2322 33.657ZM12.3477 40.7404C11.9935 40.7404 11.6967 40.6205 11.4572 40.3808C11.2175 40.1411 11.0977 39.8441 11.0977 39.49C11.0977 39.1355 11.2175 38.8387 11.4572 38.5995C11.6967 38.3601 11.9935 38.2404 12.3477 38.2404H40.6168C40.971 38.2404 41.2678 38.3602 41.5072 38.6C41.747 38.8397 41.8668 39.1366 41.8668 39.4908C41.8668 39.8452 41.747 40.142 41.5072 40.3812C41.2678 40.6207 40.971 40.7404 40.6168 40.7404H12.3477ZM34.3989 33.657V23.657C34.3989 23.3029 34.5188 23.0059 34.7585 22.7662C34.9982 22.5268 35.2952 22.407 35.6493 22.407C36.0038 22.407 36.3006 22.5268 36.5397 22.7662C36.7792 23.0059 36.8989 23.3029 36.8989 23.657V33.657C36.8989 34.0112 36.779 34.3082 36.5393 34.5479C36.2996 34.7873 36.0027 34.907 35.6485 34.907C35.294 34.907 34.9971 34.7873 34.7577 34.5479C34.5185 34.3082 34.3989 34.0112 34.3989 33.657ZM40.681 19.0737H12.1652C11.8685 19.0737 11.6164 18.9701 11.4089 18.7629C11.2014 18.5559 11.0977 18.3044 11.0977 18.0083V17.3575C11.0977 17.1405 11.152 16.9534 11.2606 16.7962C11.3695 16.6393 11.5128 16.5116 11.6906 16.4133L25.1585 9.82371C25.5746 9.62288 26.0152 9.52246 26.4802 9.52246C26.9452 9.52246 27.3871 9.62288 27.806 9.82371L41.2064 16.3716C41.4159 16.4786 41.5782 16.6282 41.6935 16.8204C41.809 17.0129 41.8668 17.2195 41.8668 17.4404V17.892C41.8668 18.2332 41.7552 18.5154 41.5318 18.7387C41.3085 18.962 41.0249 19.0737 40.681 19.0737ZM17.0077 16.5737H35.9568L26.7068 12.0866C26.6318 12.0544 26.557 12.0383 26.4822 12.0383C26.4075 12.0383 26.3327 12.0544 26.2577 12.0866L17.0077 16.5737Z" fill="white"/>
</g>
<defs>
<linearGradient id="paint0_linear_527_4421" x1="52.0859" y1="52.0859" x2="-9.19164" y2="36.7665" gradientUnits="userSpaceOnUse">
<stop stop-color="#0146B3"/>
<stop offset="1" stop-color="#80A2D9"/>
</linearGradient>
</defs>
</svg>
