<svg width="53" height="53" viewBox="0 0 53 53" fill="none" xmlns="http://www.w3.org/2000/svg">
<rect width="52.0859" height="52.0859" rx="8" transform="matrix(-1 0 0 1 52.5234 0.529297)" fill="url(#paint0_linear_527_4416)"/>
<mask id="mask0_527_4416" style="mask-type:alpha" maskUnits="userSpaceOnUse" x="6" y="6" width="41" height="41">
<rect x="6.48047" y="6.57227" width="40" height="40" fill="#D9D9D9"/>
</mask>
<g mask="url(#mask0_527_4416)">
<path d="M26.4792 29.9919L29.2292 31.684C29.4706 31.8357 29.7174 31.8235 29.9696 31.6474C30.2218 31.471 30.3169 31.2343 30.255 30.9374L29.5175 27.7932L31.9663 25.6874C32.2013 25.4801 32.2686 25.2403 32.1683 24.9678C32.0678 24.6953 31.8658 24.5451 31.5625 24.5174L28.3671 24.2257L27.1008 21.2899C26.9833 21.0207 26.7761 20.8861 26.4792 20.8861C26.1822 20.8861 25.975 21.0207 25.8575 21.2899L24.5913 24.2257L21.3958 24.5174C21.0925 24.5451 20.8906 24.6953 20.79 24.9678C20.6897 25.2403 20.7571 25.4801 20.9921 25.6874L23.4408 27.7932L22.7033 30.9374C22.6414 31.2343 22.7365 31.471 22.9888 31.6474C23.241 31.8235 23.4878 31.8357 23.7292 31.684L26.4792 29.9919ZM21.6008 38.2386H17.505C16.7592 38.2386 16.1239 37.9764 15.5992 37.4519C15.0747 36.9272 14.8125 36.2919 14.8125 35.5461V31.4503L11.8283 28.4565C11.5656 28.1874 11.3722 27.8887 11.2483 27.5607C11.1244 27.2326 11.0625 26.9031 11.0625 26.5719C11.0625 26.2408 11.1244 25.9112 11.2483 25.5832C11.3722 25.2551 11.5656 24.9565 11.8283 24.6874L14.8125 21.6936V17.5978C14.8125 16.8519 15.0747 16.2167 15.5992 15.6919C16.1239 15.1675 16.7592 14.9053 17.505 14.9053H21.6008L24.5946 11.9211C24.8638 11.6583 25.1624 11.465 25.4904 11.3411C25.8185 11.2172 26.1481 11.1553 26.4792 11.1553C26.8103 11.1553 27.1399 11.2172 27.4679 11.3411C27.796 11.465 28.0946 11.6583 28.3638 11.9211L31.3575 14.9053H35.4533C36.1992 14.9053 36.8344 15.1675 37.3592 15.6919C37.8836 16.2167 38.1458 16.8519 38.1458 17.5978V21.6936L41.13 24.6874C41.3928 24.9565 41.5861 25.2551 41.71 25.5832C41.8339 25.9112 41.8958 26.2408 41.8958 26.5719C41.8958 26.9031 41.8339 27.2326 41.71 27.5607C41.5861 27.8887 41.3928 28.1874 41.13 28.4565L38.1458 31.4503V35.5461C38.1458 36.2919 37.8836 36.9272 37.3592 37.4519C36.8344 37.9764 36.1992 38.2386 35.4533 38.2386H31.3575L28.3638 41.2228C28.0946 41.4856 27.796 41.6789 27.4679 41.8028C27.1399 41.9267 26.8103 41.9886 26.4792 41.9886C26.1481 41.9886 25.8185 41.9267 25.4904 41.8028C25.1624 41.6789 24.8638 41.4856 24.5946 41.2228L21.6008 38.2386ZM22.3125 36.5719L25.7421 40.0015C25.9343 40.1937 26.18 40.2899 26.4792 40.2899C26.7783 40.2899 27.024 40.1937 27.2163 40.0015L30.6458 36.5719H35.4533C35.7525 36.5719 35.9983 36.4758 36.1908 36.2836C36.3831 36.0911 36.4792 35.8453 36.4792 35.5461V30.7386L39.9088 27.309C40.101 27.1168 40.1971 26.8711 40.1971 26.5719C40.1971 26.2728 40.101 26.0271 39.9088 25.8349L36.4792 22.4053V17.5978C36.4792 17.2986 36.3831 17.0528 36.1908 16.8603C35.9983 16.6681 35.7525 16.5719 35.4533 16.5719H30.6458L27.2163 13.1424C27.024 12.9501 26.7783 12.854 26.4792 12.854C26.18 12.854 25.9343 12.9501 25.7421 13.1424L22.3125 16.5719H17.505C17.2058 16.5719 16.96 16.6681 16.7675 16.8603C16.5753 17.0528 16.4792 17.2986 16.4792 17.5978V22.4053L13.0496 25.8349C12.8574 26.0271 12.7613 26.2728 12.7613 26.5719C12.7613 26.8711 12.8574 27.1168 13.0496 27.309L16.4792 30.7386V35.5461C16.4792 35.8453 16.5753 36.0911 16.7675 36.2836C16.96 36.4758 17.2058 36.5719 17.505 36.5719H22.3125Z" fill="white"/>
</g>
<defs>
<linearGradient id="paint0_linear_527_4416" x1="52.0859" y1="52.0859" x2="-9.19164" y2="36.7665" gradientUnits="userSpaceOnUse">
<stop stop-color="#0146B3"/>
<stop offset="1" stop-color="#80A2D9"/>
</linearGradient>
</defs>
</svg>
