<svg width="53" height="53" viewBox="0 0 53 53" fill="none" xmlns="http://www.w3.org/2000/svg">
<rect width="52.0859" height="52.0859" rx="8" transform="matrix(-1 0 0 1 52.5234 0.529297)" fill="url(#paint0_linear_527_4426)"/>
<mask id="mask0_527_4426" style="mask-type:alpha" maskUnits="userSpaceOnUse" x="6" y="6" width="41" height="41">
<rect x="6.48047" y="6.57227" width="40" height="40" fill="#D9D9D9"/>
</mask>
<g mask="url(#mask0_527_4426)">
<path d="M20.8889 33.1109L28.6484 30.7584C29.1398 30.6026 29.5602 30.35 29.9097 30.0005C30.2591 29.6511 30.5118 29.2306 30.6676 28.7393L33.0234 20.9763C33.1045 20.6944 33.0368 20.4461 32.8201 20.2313C32.6034 20.0166 32.355 19.9509 32.0747 20.0343L24.3151 22.3868C23.8237 22.5426 23.4033 22.7952 23.0539 23.1447C22.7044 23.4941 22.4518 23.9145 22.2959 24.4059L19.9401 32.1688C19.859 32.4508 19.9268 32.6991 20.1434 32.9138C20.3601 33.1286 20.6086 33.1943 20.8889 33.1109ZM26.478 28.7522C25.8716 28.7522 25.3575 28.5398 24.9355 28.1151C24.5133 27.6906 24.3022 27.1752 24.3022 26.5688C24.3022 25.9625 24.5145 25.4483 24.9393 25.0263C25.3637 24.6041 25.8791 24.393 26.4855 24.393C27.0919 24.393 27.6061 24.6054 28.028 25.0301C28.4502 25.4545 28.6614 25.97 28.6614 26.5763C28.6614 27.1827 28.449 27.6969 28.0243 28.1188C27.5998 28.5411 27.0844 28.7522 26.478 28.7522ZM26.4847 42.4059C24.2947 42.4059 22.2362 41.9904 20.3093 41.1593C18.3823 40.3281 16.7062 39.2002 15.2809 37.7755C13.8557 36.3508 12.7272 34.6754 11.8955 32.7493C11.0641 30.8231 10.6484 28.7652 10.6484 26.5755C10.6484 24.3855 11.064 22.327 11.8951 20.4001C12.7262 18.4731 13.8541 16.797 15.2789 15.3718C16.7036 13.9465 18.379 12.818 20.3051 11.9863C22.2312 11.155 24.2891 10.7393 26.4789 10.7393C28.6689 10.7393 30.7273 11.1548 32.6543 11.9859C34.5812 12.817 36.2573 13.945 37.6826 15.3697C39.1079 16.7944 40.2364 18.4698 41.068 20.3959C41.8994 22.322 42.3151 24.38 42.3151 26.5697C42.3151 28.7597 41.8995 30.8181 41.0684 32.7451C40.2373 34.672 39.1094 36.3481 37.6847 37.7734C36.26 39.1987 34.5845 40.3272 32.6584 41.1588C30.7323 41.9902 28.6744 42.4059 26.4847 42.4059ZM26.4818 39.9059C30.1868 39.9059 33.3352 38.61 35.9272 36.018C38.5191 33.4261 39.8151 30.2776 39.8151 26.5726C39.8151 22.8676 38.5191 19.7191 35.9272 17.1272C33.3352 14.5352 30.1868 13.2393 26.4818 13.2393C22.7768 13.2393 19.6283 14.5352 17.0364 17.1272C14.4444 19.7191 13.1484 22.8676 13.1484 26.5726C13.1484 30.2776 14.4444 33.4261 17.0364 36.018C19.6283 38.61 22.7768 39.9059 26.4818 39.9059Z" fill="white"/>
</g>
<defs>
<linearGradient id="paint0_linear_527_4426" x1="52.0859" y1="52.0859" x2="-9.19164" y2="36.7665" gradientUnits="userSpaceOnUse">
<stop stop-color="#0146B3"/>
<stop offset="1" stop-color="#80A2D9"/>
</linearGradient>
</defs>
</svg>
