<svg width="53" height="53" viewBox="0 0 53 53" fill="none" xmlns="http://www.w3.org/2000/svg">
<rect width="52.0859" height="52.0859" rx="8" transform="matrix(-1 0 0 1 52.5234 0.530273)" fill="url(#paint0_linear_527_4396)"/>
<mask id="mask0_527_4396" style="mask-type:alpha" maskUnits="userSpaceOnUse" x="6" y="6" width="41" height="41">
<rect x="6.48047" y="6.57324" width="40" height="40" fill="#D9D9D9"/>
</mask>
<g mask="url(#mask0_527_4396)">
<path d="M17.4984 41.0956L18.9051 37.9319C18.4737 37.6158 18.0587 37.2959 17.6601 36.9723C17.2614 36.6484 16.8795 36.2931 16.5142 35.9065C16.3134 35.9898 16.1114 36.0523 15.9084 36.094C15.7053 36.1356 15.4949 36.1565 15.2771 36.1565C14.4246 36.1565 13.6932 35.8515 13.083 35.2415C12.473 34.6315 12.168 33.9001 12.168 33.0473C12.168 32.5453 12.2781 32.0785 12.4984 31.6469C12.7184 31.2152 13.0206 30.8573 13.4051 30.5731C13.1828 29.9342 13.0248 29.2884 12.9309 28.6356C12.837 27.9828 12.7901 27.2953 12.7901 26.5731C12.7901 25.8509 12.837 25.1634 12.9309 24.5106C13.0248 23.8578 13.1828 23.212 13.4051 22.5731C13.0206 22.289 12.7184 21.931 12.4984 21.4994C12.2781 21.0677 12.168 20.6009 12.168 20.099C12.168 19.2462 12.473 18.5148 13.083 17.9048C13.6932 17.2948 14.4246 16.9898 15.2771 16.9898C15.4949 16.9898 15.7053 17.0106 15.9084 17.0523C16.1114 17.094 16.3134 17.1565 16.5142 17.2398C17.4309 16.2398 18.4742 15.4038 19.6442 14.7319C20.8139 14.0599 22.0655 13.5626 23.3988 13.2398C23.5163 12.4706 23.8716 11.8242 24.4646 11.3006C25.0574 10.7773 25.7385 10.5156 26.508 10.5156C27.2771 10.5156 27.9581 10.7763 28.5509 11.2977C29.1439 11.8188 29.4992 12.4555 29.6167 13.2077C30.9714 13.5305 32.2337 14.0235 33.4034 14.6869C34.5734 15.3505 35.6167 16.1737 36.5334 17.1565C36.7342 17.0731 36.9266 17.016 37.1105 16.9852C37.2941 16.9541 37.4863 16.9385 37.6871 16.9385C38.5396 16.9385 39.271 17.2435 39.8813 17.8535C40.4913 18.4635 40.7963 19.1949 40.7963 20.0477C40.7963 20.5497 40.6905 21.0078 40.4788 21.4223C40.2674 21.837 39.978 22.1865 39.6105 22.4706C39.8327 23.1265 39.9908 23.7937 40.0846 24.4723C40.1788 25.1506 40.2259 25.8509 40.2259 26.5731C40.2259 27.2953 40.1788 27.9967 40.0846 28.6773C39.9908 29.3578 39.8327 30.0176 39.6105 30.6565C39.9671 30.9406 40.2487 31.2847 40.4551 31.6885C40.6612 32.0924 40.7642 32.5453 40.7642 33.0473C40.7642 33.9001 40.4592 34.6315 39.8492 35.2415C39.2392 35.8515 38.5078 36.1565 37.6551 36.1565C37.4542 36.1565 37.262 36.1383 37.0784 36.1019C36.8945 36.0655 36.7021 36.011 36.5013 35.9385C36.136 36.3252 35.7637 36.689 35.3842 37.0298C35.0051 37.3706 34.5805 37.6991 34.1105 38.0152L35.4501 41.121C35.6189 41.4866 35.5923 41.8297 35.3701 42.1502C35.1478 42.4705 34.8401 42.6306 34.4467 42.6306C34.2162 42.6306 34.0138 42.5687 33.8396 42.4448C33.6655 42.3209 33.5335 42.1606 33.4438 41.964L32.1871 39.0602C31.7555 39.2591 31.3324 39.429 30.918 39.5698C30.5035 39.7109 30.0698 39.8338 29.6167 39.9385C29.4992 40.6908 29.1439 41.3274 28.5509 41.8485C27.9581 42.3699 27.2771 42.6306 26.508 42.6306C25.7385 42.6306 25.0574 42.369 24.4646 41.8456C23.8716 41.322 23.5163 40.6756 23.3988 39.9065C22.9288 39.8017 22.4823 39.6788 22.0592 39.5377C21.6362 39.3969 21.2088 39.227 20.7771 39.0281L19.4884 41.9898C19.3987 42.1865 19.2626 42.3424 19.0801 42.4577C18.8973 42.573 18.6991 42.6306 18.4855 42.6306C18.0921 42.6306 17.7871 42.4662 17.5705 42.1373C17.3535 41.8081 17.3295 41.4609 17.4984 41.0956ZM19.6296 36.1823L22.5655 29.6115C22.2299 29.1862 21.9698 28.7162 21.7851 28.2015C21.6003 27.6865 21.508 27.1437 21.508 26.5731C21.508 25.2142 22.0014 24.0412 22.9884 23.054C23.9756 22.0667 25.1488 21.5731 26.508 21.5731C27.8669 21.5731 29.0399 22.0667 30.0271 23.054C31.0141 24.0412 31.5076 25.2142 31.5076 26.5731C31.5076 27.1437 31.4056 27.6976 31.2017 28.2348C30.9976 28.7723 30.7192 29.259 30.3667 29.6948L33.3026 36.2144C33.6167 35.9813 33.9185 35.7478 34.208 35.514C34.4977 35.2798 34.7749 35.011 35.0396 34.7077C34.8582 34.4749 34.7306 34.2159 34.6567 33.9306C34.5831 33.6453 34.5463 33.3509 34.5463 33.0473C34.5463 32.1584 34.8759 31.408 35.5351 30.796C36.1942 30.1838 36.9523 29.9087 37.8092 29.9706C37.9759 29.4151 38.1062 28.861 38.2001 28.3085C38.2942 27.7563 38.3413 27.1778 38.3413 26.5731C38.3413 25.9684 38.2942 25.3813 38.2001 24.8119C38.1062 24.2424 37.9759 23.6799 37.8092 23.1244C36.9523 23.1863 36.1995 22.9112 35.5509 22.299C34.9026 21.687 34.5784 20.9366 34.5784 20.0477C34.5784 19.7655 34.6264 19.4903 34.7226 19.2223C34.8187 18.954 34.9351 18.7034 35.0717 18.4706C34.2662 17.6328 33.3694 16.9335 32.3813 16.3727C31.393 15.8119 30.3412 15.3787 29.2259 15.0731C28.9737 15.5773 28.6088 15.9801 28.1313 16.2815C27.6535 16.5828 27.1124 16.7335 26.508 16.7335C25.9032 16.7335 25.362 16.5828 24.8842 16.2815C24.4067 15.9801 24.0419 15.5773 23.7896 15.0731C22.6402 15.3787 21.5713 15.8162 20.583 16.3856C19.5949 16.9551 18.6981 17.6672 17.8926 18.5219C18.0292 18.7547 18.1456 19.0052 18.2417 19.2735C18.3378 19.5416 18.3859 19.8167 18.3859 20.099C18.3859 20.9984 18.0649 21.7447 17.423 22.3377C16.7807 22.9305 16.0313 23.2098 15.1746 23.1756C15.008 23.7312 14.883 24.2852 14.7996 24.8377C14.7163 25.3899 14.6746 25.9684 14.6746 26.5731C14.6746 27.1778 14.7163 27.7563 14.7996 28.3085C14.883 28.861 15.008 29.4151 15.1746 29.9706C16.0099 29.9087 16.7539 30.181 17.4067 30.7877C18.0595 31.3947 18.3859 32.1478 18.3859 33.0473C18.3859 33.3509 18.3491 33.6315 18.2755 33.889C18.2016 34.1465 18.0739 34.3916 17.8926 34.6244C18.1573 34.9277 18.4345 35.1997 18.7242 35.4402C19.0137 35.6805 19.3155 35.9278 19.6296 36.1823ZM21.5526 37.2781C21.9009 37.4492 22.2614 37.5983 22.6342 37.7252C23.0073 37.8524 23.3924 37.9684 23.7896 38.0731C24.0419 37.569 24.4067 37.1662 24.8842 36.8648C25.362 36.5634 25.9032 36.4127 26.508 36.4127C27.1124 36.4127 27.6535 36.5634 28.1313 36.8648C28.6088 37.1662 28.9737 37.569 29.2259 38.0731C29.6126 37.9684 29.981 37.8578 30.3313 37.7415C30.6819 37.6251 31.0313 37.4813 31.3796 37.3102L28.6105 31.0923C28.2877 31.2417 27.9538 31.3592 27.6088 31.4448C27.2638 31.5303 26.8969 31.5731 26.508 31.5731C26.1019 31.5731 25.7166 31.526 25.3521 31.4319C24.988 31.338 24.6445 31.197 24.3217 31.009L21.5526 37.2781ZM26.508 29.0731C27.1746 29.0731 27.758 28.837 28.258 28.3648C28.758 27.8926 29.008 27.2953 29.008 26.5731C29.008 25.9065 28.758 25.3231 28.258 24.8231C27.758 24.3231 27.1746 24.0731 26.508 24.0731C25.7857 24.0731 25.1885 24.3231 24.7163 24.8231C24.2441 25.3231 24.008 25.9065 24.008 26.5731C24.008 27.2953 24.2441 27.8926 24.7163 28.3648C25.1885 28.837 25.7857 29.0731 26.508 29.0731Z" fill="white"/>
</g>
<defs>
<linearGradient id="paint0_linear_527_4396" x1="52.0859" y1="52.0859" x2="-9.19164" y2="36.7665" gradientUnits="userSpaceOnUse">
<stop stop-color="#0146B3"/>
<stop offset="1" stop-color="#80A2D9"/>
</linearGradient>
</defs>
</svg>
