<svg width="53" height="53" viewBox="0 0 53 53" fill="none" xmlns="http://www.w3.org/2000/svg">
<rect width="52.0859" height="52.0859" rx="8" transform="matrix(-1 0 0 1 52.5234 0.530273)" fill="url(#paint0_linear_527_4390)"/>
<mask id="mask0_527_4390" style="mask-type:alpha" maskUnits="userSpaceOnUse" x="6" y="6" width="41" height="41">
<rect x="6.48047" y="6.57324" width="40" height="40" fill="#D9D9D9"/>
</mask>
<g mask="url(#mask0_527_4390)">
<path d="M8.755 36.2208C8.34639 36.2208 8.00375 36.0827 7.72708 35.8063C7.45069 35.5296 7.3125 35.187 7.3125 34.7783V34.1888C7.3125 33.0799 7.89153 32.169 9.04958 31.4563C10.2079 30.7438 11.7176 30.3875 13.5788 30.3875C13.8863 30.3875 14.196 30.3971 14.5079 30.4163C14.8199 30.4354 15.134 30.4728 15.4504 30.5283C15.1257 31.0478 14.8847 31.5868 14.7275 32.1454C14.5706 32.7043 14.4921 33.2775 14.4921 33.865V36.2208H8.755ZM18.8254 36.2208C18.3915 36.2208 18.031 36.0764 17.7438 35.7875C17.4563 35.4989 17.3125 35.1411 17.3125 34.7142V33.9292C17.3125 33.1489 17.5315 32.4357 17.9696 31.7896C18.4076 31.1432 19.039 30.5797 19.8638 30.0992C20.6885 29.6183 21.6629 29.2578 22.7871 29.0175C23.911 28.777 25.1396 28.6567 26.4729 28.6567C27.8318 28.6567 29.0732 28.777 30.1971 29.0175C31.321 29.2578 32.2953 29.6183 33.12 30.0992C33.945 30.5797 34.5722 31.1432 35.0017 31.7896C35.4311 32.4357 35.6458 33.1489 35.6458 33.9292V34.7142C35.6458 35.1411 35.5014 35.4989 35.2125 35.7875C34.9239 36.0764 34.5661 36.2208 34.1392 36.2208H18.8254ZM38.4663 36.2208V33.8671C38.4663 33.2396 38.3921 32.6492 38.2437 32.0958C38.0951 31.5425 37.8724 31.02 37.5754 30.5283C37.9024 30.4728 38.2149 30.4354 38.5129 30.4163C38.811 30.3971 39.1053 30.3875 39.3958 30.3875C41.2569 30.3875 42.7639 30.7396 43.9167 31.4438C45.0694 32.1477 45.6458 33.0627 45.6458 34.1888V34.7783C45.6458 35.187 45.5076 35.5296 45.2312 35.8063C44.9546 36.0827 44.6119 36.2208 44.2033 36.2208H38.4663ZM19.9408 33.7208H33.0433V33.5446C32.8725 32.8715 32.1631 32.3053 30.915 31.8458C29.6672 31.3864 28.1886 31.1567 26.4792 31.1567C24.7697 31.1567 23.2911 31.3864 22.0433 31.8458C20.7953 32.3053 20.0944 32.8715 19.9408 33.5446V33.7208ZM13.5742 28.7688C12.7886 28.7688 12.1175 28.4895 11.5608 27.9308C11.0042 27.3722 10.7258 26.7007 10.7258 25.9163C10.7258 25.1215 11.0053 24.4502 11.5642 23.9021C12.1228 23.354 12.7943 23.08 13.5788 23.08C14.3735 23.08 15.0475 23.354 15.6008 23.9021C16.1544 24.4502 16.4312 25.1232 16.4312 25.9213C16.4312 26.6957 16.1574 27.3639 15.6096 27.9258C15.0621 28.4878 14.3836 28.7688 13.5742 28.7688ZM39.3958 28.7688C38.6181 28.7688 37.9482 28.4878 37.3862 27.9258C36.8243 27.3639 36.5433 26.6957 36.5433 25.9213C36.5433 25.1232 36.8243 24.4502 37.3862 23.9021C37.9482 23.354 38.619 23.08 39.3988 23.08C40.2024 23.08 40.8782 23.354 41.4263 23.9021C41.9743 24.4502 42.2483 25.1215 42.2483 25.9163C42.2483 26.7007 41.975 27.3722 41.4283 27.9308C40.8817 28.4895 40.2042 28.7688 39.3958 28.7688ZM26.485 27.4067C25.2844 27.4067 24.2622 26.986 23.4183 26.1446C22.5744 25.3035 22.1525 24.282 22.1525 23.08C22.1525 21.8539 22.5731 20.8263 23.4142 19.9971C24.2556 19.1677 25.2772 18.7529 26.4792 18.7529C27.705 18.7529 28.7326 19.1671 29.5621 19.9954C30.3912 20.8235 30.8058 21.8497 30.8058 23.0742C30.8058 24.2745 30.3918 25.2967 29.5638 26.1408C28.7354 26.9847 27.7092 27.4067 26.485 27.4067ZM26.4871 24.9067C26.9968 24.9067 27.4274 24.7283 27.7787 24.3717C28.1304 24.0147 28.3062 23.5814 28.3062 23.0717C28.3062 22.5622 28.1311 22.1317 27.7808 21.78C27.4306 21.4286 26.9967 21.2529 26.4792 21.2529C25.975 21.2529 25.5444 21.4281 25.1875 21.7783C24.8306 22.1283 24.6521 22.5622 24.6521 23.08C24.6521 23.5842 24.8306 24.0147 25.1875 24.3717C25.5444 24.7283 25.9776 24.9067 26.4871 24.9067Z" fill="white"/>
</g>
<defs>
<linearGradient id="paint0_linear_527_4390" x1="52.0859" y1="52.0859" x2="-9.19164" y2="36.7665" gradientUnits="userSpaceOnUse">
<stop stop-color="#0146B3"/>
<stop offset="1" stop-color="#80A2D9"/>
</linearGradient>
</defs>
</svg>
