<svg width="53" height="53" viewBox="0 0 53 53" fill="none" xmlns="http://www.w3.org/2000/svg">
<rect width="52.0859" height="52.0859" rx="8" transform="matrix(-1 0 0 1 52.5234 0.529297)" fill="url(#paint0_linear_527_4411)"/>
<mask id="mask0_527_4411" style="mask-type:alpha" maskUnits="userSpaceOnUse" x="6" y="6" width="41" height="41">
<rect x="6.48047" y="6.57227" width="40" height="40" fill="#D9D9D9"/>
</mask>
<g mask="url(#mask0_527_4411)">
<path d="M38.0762 39.9415L29.4896 31.3869C29.2482 31.1561 29.1275 30.8659 29.1275 30.5165C29.1275 30.1673 29.2482 29.8719 29.4896 29.6302C29.731 29.3888 30.0238 29.2682 30.3679 29.2682C30.7118 29.2682 31.0044 29.3888 31.2458 29.6302L39.8167 38.2011C40.0472 38.4316 40.1625 38.7243 40.1625 39.079C40.1625 39.4337 40.0418 39.7265 39.8004 39.9573C39.5696 40.1882 39.2822 40.3009 38.9383 40.2957C38.5944 40.2901 38.3071 40.172 38.0762 39.9415ZM14.5988 36.8132C13.8229 35.5098 13.2428 34.1519 12.8583 32.7394C12.4736 31.3269 12.2812 29.8877 12.2812 28.4219C12.2812 26.3516 12.6654 24.3394 13.4338 22.3852C14.2018 20.4311 15.3764 18.6688 16.9575 17.0986C18.5389 15.5172 20.3108 14.3381 22.2733 13.5615C24.2358 12.7848 26.2417 12.3965 28.2908 12.3965C29.7672 12.3965 31.209 12.593 32.6162 12.9861C34.0232 13.3794 35.3699 13.9638 36.6562 14.7394C37.3357 15.1669 37.7032 15.7769 37.7587 16.5694C37.8143 17.3622 37.5386 18.062 36.9317 18.669L18.5279 37.0727C17.9212 37.6794 17.2172 37.9577 16.4158 37.9077C15.6147 37.8575 15.009 37.4926 14.5988 36.8132ZM16.6821 35.3548L19.3167 32.7202C18.8722 32.1155 18.4406 31.4862 18.0217 30.8323C17.6028 30.1784 17.2267 29.5032 16.8933 28.8065C16.56 28.1101 16.2818 27.3895 16.0587 26.6448C15.8354 25.9001 15.6692 25.1452 15.56 24.3802C14.9019 26.2116 14.6782 28.0829 14.8887 29.994C15.099 31.9054 15.6968 33.6923 16.6821 35.3548ZM21.1562 30.964L30.8229 21.2136C29.6285 20.2969 28.419 19.5645 27.1946 19.0165C25.9704 18.4684 24.8172 18.0983 23.735 17.9061C22.6525 17.7138 21.6743 17.6979 20.8004 17.8582C19.9265 18.0184 19.2482 18.34 18.7654 18.8227C18.2824 19.3227 17.9607 20.0097 17.8004 20.8836C17.6401 21.7575 17.6535 22.7398 17.8404 23.8307C18.0274 24.9215 18.3949 26.0775 18.9429 27.2986C19.4912 28.52 20.229 29.7418 21.1562 30.964ZM35.2975 16.8227C33.59 15.8055 31.7779 15.1955 29.8612 14.9927C27.9446 14.7897 26.0707 15.0151 24.2396 15.669C25.0324 15.7673 25.8011 15.9334 26.5458 16.1673C27.2903 16.4012 28.0108 16.6807 28.7075 17.0057C29.4042 17.3304 30.0778 17.702 30.7283 18.1207C31.3789 18.5395 32.0065 18.9851 32.6112 19.4573L35.2975 16.8227Z" fill="white"/>
</g>
<defs>
<linearGradient id="paint0_linear_527_4411" x1="52.0859" y1="52.0859" x2="-9.19164" y2="36.7665" gradientUnits="userSpaceOnUse">
<stop stop-color="#0146B3"/>
<stop offset="1" stop-color="#80A2D9"/>
</linearGradient>
</defs>
</svg>
