<svg width="53" height="53" viewBox="0 0 53 53" fill="none" xmlns="http://www.w3.org/2000/svg">
<rect width="52.0859" height="52.0859" rx="8" transform="matrix(-1 0 0 1 52.5234 0.530273)" fill="url(#paint0_linear_527_4401)"/>
<mask id="mask0_527_4401" style="mask-type:alpha" maskUnits="userSpaceOnUse" x="6" y="6" width="41" height="41">
<rect x="6.48047" y="6.57324" width="40" height="40" fill="#D9D9D9"/>
</mask>
<g mask="url(#mask0_527_4401)">
<path d="M10.2305 40.3229V26.5729C10.2305 26.2188 10.3503 25.9219 10.5901 25.6825C10.8298 25.4428 11.1267 25.3229 11.4809 25.3229C11.8353 25.3229 12.1321 25.4428 12.3713 25.6825C12.6107 25.9219 12.7305 26.2188 12.7305 26.5729V28.6562H16.7851L21.8555 11.8454V9.90625C21.8555 9.55208 21.9753 9.25528 22.2151 9.01583C22.4548 8.77611 22.7517 8.65625 23.1059 8.65625C23.4603 8.65625 23.7571 8.77611 23.9963 9.01583C24.2357 9.25528 24.3555 9.55208 24.3555 9.90625V11.9896H28.5638V9.90625C28.5638 9.55208 28.6837 9.25528 28.9234 9.01583C29.1631 8.77611 29.4601 8.65625 29.8142 8.65625C30.1687 8.65625 30.4655 8.77611 30.7046 9.01583C30.9441 9.25528 31.0638 9.55208 31.0638 9.90625V11.6371L36.1759 28.6562H40.2305V26.5729C40.2305 26.2188 40.3503 25.9219 40.5901 25.6825C40.8298 25.4428 41.1267 25.3229 41.4809 25.3229C41.8353 25.3229 42.1321 25.4428 42.3713 25.6825C42.6107 25.9219 42.7305 26.2188 42.7305 26.5729V40.3229C42.7305 41.0046 42.4842 41.5917 41.9917 42.0842C41.4992 42.5767 40.9121 42.8229 40.2305 42.8229H30.0701C29.6434 42.8229 29.2856 42.6786 28.9967 42.39C28.7081 42.1011 28.5638 41.7433 28.5638 41.3167V34.4896H24.3971V41.3167C24.3971 41.7433 24.2528 42.1011 23.9642 42.39C23.6753 42.6786 23.3176 42.8229 22.8909 42.8229H12.7305C12.0488 42.8229 11.4617 42.5767 10.9692 42.0842C10.4767 41.5917 10.2305 41.0046 10.2305 40.3229ZM20.4196 25.3229H32.5413L31.2851 21.1563H21.6759L20.4196 25.3229ZM22.4196 18.6562H30.5413L29.2851 14.4896H23.6759L22.4196 18.6562ZM12.7305 40.3229H21.8971V34.4896C21.8971 33.8079 22.1434 33.2208 22.6359 32.7283C23.1284 32.2358 23.7155 31.9896 24.3971 31.9896H28.5638C29.2455 31.9896 29.8326 32.2358 30.3251 32.7283C30.8176 33.2208 31.0638 33.8079 31.0638 34.4896V40.3229H40.2305V31.1563H36.1601C35.6181 31.1563 35.1231 30.9947 34.6751 30.6717C34.227 30.3486 33.9196 29.9161 33.753 29.3742L33.2851 27.9192L19.6759 27.8229L19.208 29.3742C19.0413 29.9161 18.7339 30.3486 18.2859 30.6717C17.8378 30.9947 17.3428 31.1563 16.8009 31.1563H12.7305V40.3229Z" fill="white"/>
</g>
<defs>
<linearGradient id="paint0_linear_527_4401" x1="52.0859" y1="52.0859" x2="-9.19164" y2="36.7665" gradientUnits="userSpaceOnUse">
<stop stop-color="#0146B3"/>
<stop offset="1" stop-color="#80A2D9"/>
</linearGradient>
</defs>
</svg>
