<svg width="53" height="53" viewBox="0 0 53 53" fill="none" xmlns="http://www.w3.org/2000/svg">
<rect width="52.0859" height="52.0859" rx="8" transform="matrix(-1 0 0 1 52.5234 0.530273)" fill="url(#paint0_linear_527_4527)"/>
<mask id="mask0_527_4527" style="mask-type:alpha" maskUnits="userSpaceOnUse" x="6" y="6" width="41" height="41">
<rect x="6.48047" y="6.57324" width="40" height="40" fill="#D9D9D9"/>
</mask>
<g mask="url(#mask0_527_4527)">
<path d="M26.4659 39.4224C26.109 39.4224 25.7505 39.3584 25.3905 39.2303C25.0305 39.102 24.7137 38.9012 24.4401 38.6278L22.0459 36.4516C19.0909 33.7571 16.4526 31.1102 14.1309 28.5107C11.8093 25.9113 10.6484 23.1266 10.6484 20.1566C10.6484 17.7913 11.4459 15.811 13.0409 14.2157C14.6362 12.6207 16.6165 11.8232 18.9818 11.8232C20.3257 11.8232 21.6532 12.1331 22.9643 12.7528C24.2751 13.3725 25.4476 14.3789 26.4818 15.772C27.5159 14.3789 28.6884 13.3725 29.9993 12.7528C31.3104 12.1331 32.6379 11.8232 33.9818 11.8232C36.347 11.8232 38.3273 12.6207 39.9226 14.2157C41.5176 15.811 42.3151 17.7913 42.3151 20.1566C42.3151 23.1588 41.1345 25.9745 38.7734 28.6037C36.4123 31.2328 33.7798 33.8573 30.8759 36.477L28.5072 38.6278C28.2339 38.9012 27.9145 39.102 27.5493 39.2303C27.1837 39.3584 26.8226 39.4224 26.4659 39.4224ZM25.283 18.3041C24.3814 16.9302 23.432 15.9232 22.4351 15.2832C21.4384 14.6432 20.2873 14.3232 18.9818 14.3232C17.3151 14.3232 15.9262 14.8788 14.8151 15.9899C13.704 17.101 13.1484 18.4899 13.1484 20.1566C13.1484 21.4941 13.5795 22.8925 14.4418 24.352C15.304 25.8114 16.3862 27.2623 17.6884 28.7045C18.9907 30.147 20.4015 31.5562 21.9209 32.932C23.4401 34.3081 24.8482 35.587 26.1451 36.7687C26.2412 36.8542 26.3534 36.897 26.4818 36.897C26.6101 36.897 26.7223 36.8542 26.8184 36.7687C28.1154 35.587 29.5234 34.3081 31.0426 32.932C32.562 31.5562 33.9729 30.147 35.2751 28.7045C36.5773 27.2623 37.6595 25.8114 38.5218 24.352C39.384 22.8925 39.8151 21.4941 39.8151 20.1566C39.8151 18.4899 39.2595 17.101 38.1484 15.9899C37.0373 14.8788 35.6484 14.3232 33.9818 14.3232C32.6762 14.3232 31.5251 14.6432 30.5284 15.2832C29.5315 15.9232 28.5822 16.9302 27.6805 18.3041C27.5394 18.5177 27.362 18.678 27.1484 18.7849C26.9348 18.8916 26.7126 18.9449 26.4818 18.9449C26.2509 18.9449 26.0287 18.8916 25.8151 18.7849C25.6015 18.678 25.4241 18.5177 25.283 18.3041Z" fill="white"/>
</g>
<defs>
<linearGradient id="paint0_linear_527_4527" x1="52.0859" y1="52.0859" x2="-9.19164" y2="36.7665" gradientUnits="userSpaceOnUse">
<stop stop-color="#0146B3"/>
<stop offset="1" stop-color="#80A2D9"/>
</linearGradient>
</defs>
</svg>
