<svg width="53" height="53" viewBox="0 0 53 53" fill="none" xmlns="http://www.w3.org/2000/svg">
<rect width="52.0859" height="52.0859" rx="8" transform="matrix(-1 0 0 1 52.5234 0.530273)" fill="url(#paint0_linear_527_4406)"/>
<mask id="mask0_527_4406" style="mask-type:alpha" maskUnits="userSpaceOnUse" x="6" y="6" width="41" height="41">
<rect x="6.48047" y="6.57324" width="40" height="40" fill="#D9D9D9"/>
</mask>
<g mask="url(#mask0_527_4406)">
<path d="M20.7289 44.6658C20.2503 44.6658 19.697 44.4392 19.0689 43.9862C18.4406 43.5334 17.8721 42.9865 17.3635 42.3453L14.1552 38.2204C13.9757 37.9959 13.9016 37.7517 13.9327 37.4879C13.9635 37.224 14.0911 37.0023 14.3156 36.8229C14.54 36.6434 14.7884 36.5719 15.0606 36.6083C15.3331 36.6444 15.5591 36.7747 15.7385 36.9991L17.1202 38.7778L22.2164 35.1466L25.0431 20.6754L21.0814 22.2749V26.5729C21.0814 26.9276 20.9618 27.2245 20.7227 27.4637C20.4832 27.7031 20.1861 27.8229 19.8314 27.8229C19.477 27.8229 19.18 27.7031 18.9406 27.4637C18.7014 27.2245 18.5818 26.9276 18.5818 26.5729V21.6499C18.5818 21.3485 18.671 21.0723 18.8493 20.8212C19.0277 20.5701 19.2536 20.3805 19.5273 20.2524L25.1843 17.8904C26.041 17.5229 26.667 17.2835 27.0623 17.1724C27.4575 17.0613 27.825 17.0058 28.1648 17.0058C28.6734 17.0058 29.1414 17.1372 29.5689 17.3999C29.9962 17.6627 30.355 18.0174 30.6456 18.4641L32.2964 21.0891C32.9395 22.0697 33.7541 22.9274 34.7402 23.6624C35.7263 24.3977 36.8625 24.8956 38.1489 25.1562C38.5036 25.2459 38.8034 25.4105 39.0481 25.6499C39.2925 25.8891 39.4148 26.186 39.4148 26.5408C39.4148 26.8955 39.2925 27.1855 39.0481 27.4108C38.8034 27.6363 38.5123 27.7266 38.1748 27.6816C36.6425 27.4488 35.2103 26.9259 33.8781 26.1129C32.5459 25.2998 31.4053 24.2319 30.4564 22.9091L29.216 29.1754L32.2964 32.1208C32.4523 32.2769 32.5666 32.4484 32.6393 32.6353C32.7118 32.8223 32.7481 33.0162 32.7481 33.217V42.6624C33.3678 42.6455 33.8732 42.5922 34.2643 42.5024C34.6555 42.4127 35.0657 42.2545 35.4952 42.0279C35.6277 41.9617 35.7478 41.9067 35.8556 41.8629C35.9636 41.8192 36.0678 41.7974 36.1681 41.7974C36.4609 41.7974 36.7013 41.8999 36.8893 42.1049C37.0774 42.3099 37.1714 42.5333 37.1714 42.7749C37.1714 42.9758 37.1202 43.1558 37.0177 43.3149C36.9149 43.4741 36.7578 43.6124 36.5464 43.7299C35.98 44.0524 35.4005 44.2863 34.8077 44.4316C34.2146 44.5772 33.5549 44.6499 32.8285 44.6499H27.7481C27.462 44.6499 27.2249 44.5559 27.0368 44.3679C26.8488 44.1798 26.7548 43.9426 26.7548 43.6562C26.7548 43.3698 26.8488 43.1326 27.0368 42.9445C27.2249 42.7565 27.462 42.6624 27.7481 42.6624H30.2485V34.7362L26.0752 30.7458L24.726 36.0504C24.6705 36.2234 24.595 36.3837 24.4998 36.5312C24.4048 36.6787 24.2792 36.8026 24.1231 36.9028L18.6906 40.7716L19.0718 41.2908C19.3541 41.6774 19.6575 41.9792 19.9823 42.1962C20.307 42.4131 20.6692 42.591 21.0689 42.7299C21.2761 42.8369 21.4385 42.9587 21.556 43.0953C21.6735 43.232 21.7323 43.4158 21.7323 43.6466C21.7323 43.9222 21.6339 44.1609 21.4373 44.3629C21.2409 44.5648 21.0048 44.6658 20.7289 44.6658ZM30.6648 15.4833C29.8231 15.4833 29.0999 15.1809 28.4952 14.5762C27.8905 13.9715 27.5881 13.2481 27.5881 12.4062C27.5881 11.5642 27.8905 10.8409 28.4952 10.2362C29.0999 9.63146 29.8231 9.3291 30.6648 9.3291C31.5067 9.3291 32.23 9.63146 32.8348 10.2362C33.4395 10.8409 33.7418 11.5642 33.7418 12.4062C33.7418 13.2481 33.4395 13.9715 32.8348 14.5762C32.23 15.1809 31.5067 15.4833 30.6648 15.4833Z" fill="white"/>
</g>
<defs>
<linearGradient id="paint0_linear_527_4406" x1="52.0859" y1="52.0859" x2="-9.19164" y2="36.7665" gradientUnits="userSpaceOnUse">
<stop stop-color="#0146B3"/>
<stop offset="1" stop-color="#80A2D9"/>
</linearGradient>
</defs>
</svg>
