<svg width="130" height="27" viewBox="0 0 130 27" fill="none" xmlns="http://www.w3.org/2000/svg">
<g clip-path="url(#clip0_1906_232)">
<path d="M40.8472 1.26611H49.1826C50.0144 1.26611 50.7273 1.45497 51.3215 1.8309C51.9156 2.20862 52.3647 2.70927 52.667 3.33464C52.9711 3.96001 53.1214 4.64417 53.1214 5.38357C53.1214 5.8272 53.0427 6.25124 52.8837 6.65568C52.7247 7.06012 52.494 7.42893 52.19 7.76567C52.6513 8.08815 53.0008 8.48903 53.2384 8.96652C53.4761 9.44401 53.5949 9.96604 53.5949 10.5308C53.5949 11.2845 53.4464 11.974 53.1493 12.5994C52.8522 13.2247 52.4031 13.7272 51.8038 14.1031C51.2026 14.4808 50.4809 14.6679 49.6352 14.6679H40.8438V1.26611H40.8472ZM43.8756 6.53453H49.1808C49.4587 6.53453 49.6789 6.4401 49.8449 6.25124C50.0091 6.06239 50.093 5.82008 50.093 5.52432V5.14126C50.093 4.83125 50.0144 4.58716 49.8554 4.40365C49.6963 4.22191 49.4727 4.13105 49.1826 4.13105H43.8773V6.53275L43.8756 6.53453ZM43.8756 11.8225H49.6369C49.927 11.8225 50.1577 11.7246 50.3289 11.5303C50.5002 11.3361 50.5858 11.0903 50.5858 10.7927V10.4097C50.5858 10.0997 50.5002 9.85201 50.3289 9.66315C50.1577 9.4743 49.9253 9.37987 49.6369 9.37987H43.8756V11.8225Z" fill="white"/>
<path d="M64.7452 1.26611L69.9526 14.6697H66.6866L65.4197 11.3789H59.9362L58.6885 14.6697H55.4609L60.6876 1.26611H64.7469H64.7452ZM60.9637 8.53357H64.3887L62.6465 4.25398L60.9637 8.53357Z" fill="white"/>
<path d="M78.3041 9.94644V14.6697H75.295V9.94644L69.9688 1.26611H73.4532L76.8188 6.93897L80.1057 1.26611H83.6303L78.3041 9.94644Z" fill="white"/>
<path d="M92.8155 1.26611L98.0229 14.6697H94.7569L93.49 11.3789H88.0065L86.7588 14.6697H83.5312L88.7579 1.26611H92.8172H92.8155ZM89.034 8.53357H92.459L90.7168 4.25398L89.034 8.53357Z" fill="white"/>
<path d="M100.637 1.26611H109.685C110.529 1.26611 111.249 1.45497 111.843 1.8309C112.437 2.20862 112.883 2.70927 113.18 3.33464C113.477 3.96001 113.626 4.64417 113.626 5.38357C113.626 6.33855 113.369 7.1795 112.853 7.90642C112.338 8.63334 111.605 9.09124 110.655 9.27831C110.681 9.31929 110.711 9.35849 110.744 9.39946C110.777 9.44044 110.807 9.49389 110.833 9.5616L113.842 14.6679H110.417L107.329 9.37987H103.667V14.6679H100.638V1.26611H100.637ZM103.665 6.53453H109.683C109.973 6.53453 110.199 6.4401 110.356 6.25124C110.515 6.06239 110.594 5.82008 110.594 5.52432V5.14126C110.594 4.83125 110.515 4.58716 110.356 4.40365C110.197 4.22191 109.973 4.13105 109.683 4.13105H103.665V6.53275V6.53453Z" fill="white"/>
<path d="M117.012 1.26611H123.386C124.72 1.26611 125.884 1.57256 126.881 2.18368C127.877 2.79657 128.646 3.61436 129.188 4.63704C129.73 5.65973 129.999 6.76971 129.999 7.96878C129.999 9.16785 129.728 10.26 129.188 11.2898C128.646 12.3196 127.874 13.141 126.871 13.7521C125.868 14.365 124.706 14.6697 123.386 14.6697H117.012V1.26611ZM120.04 11.8243H123.386C124.099 11.8243 124.72 11.6462 125.247 11.2898C125.775 10.9335 126.179 10.4596 126.455 9.86626C126.733 9.27475 126.871 8.64225 126.871 7.96878C126.871 7.29531 126.733 6.66637 126.455 6.08198C126.177 5.49581 125.775 5.02545 125.247 4.66911C124.72 4.31278 124.099 4.13461 123.386 4.13461H120.04V11.8261V11.8243Z" fill="white"/>
<path d="M44.2919 24.3923H44.4212L46.5199 18.9011H47.8462L45.2827 25.602H43.4112L40.8477 18.9011H42.1949L44.2936 24.3923H44.2919Z" fill="#59DF02"/>
<path d="M53.0436 25.6037L52.4006 23.888H49.3513L48.7169 25.6037H47.3906L49.9541 18.9028H51.8257L54.3892 25.6037H53.0419H53.0436ZM51.9742 22.6871L50.8558 19.9006L49.7759 22.6871H51.9742Z" fill="#59DF02"/>
<path d="M59.4777 20.4761C59.1404 20.1803 58.7385 20.0324 58.2702 20.0324C57.8997 20.0324 57.5695 20.1287 57.2759 20.3193C56.9823 20.5117 56.7534 20.7754 56.5874 21.1121C56.4214 21.4489 56.3393 21.8284 56.3393 22.2524C56.3393 22.6764 56.4214 23.047 56.5874 23.382C56.7517 23.7187 56.9823 23.9824 57.2759 24.1748C57.5695 24.3673 57.9015 24.4635 58.2702 24.4635C58.7385 24.4635 59.1404 24.3156 59.4777 24.0198C59.8132 23.7241 60.0351 23.3339 60.1417 22.8493H61.4785C61.3999 23.4141 61.2129 23.9165 60.9193 24.353C60.6258 24.7895 60.2501 25.1298 59.7905 25.3721C59.3309 25.6144 58.8259 25.7356 58.272 25.7356C57.6586 25.7356 57.1046 25.5859 56.6084 25.2866C56.1138 24.9873 55.7259 24.5722 55.4446 24.0394C55.165 23.5085 55.0234 22.9116 55.0234 22.2524C55.0234 21.5932 55.1632 20.9981 55.4446 20.4654C55.7242 19.9345 56.1121 19.5175 56.6084 19.2129C57.1029 18.91 57.6568 18.7585 58.272 18.7585C58.8259 18.7585 59.3327 18.8797 59.7905 19.122C60.2501 19.3643 60.6258 19.7046 60.9193 20.1411C61.2129 20.5794 61.3999 21.0801 61.4785 21.6449H60.1417C60.0351 21.1602 59.815 20.7701 59.4777 20.4743V20.4761Z" fill="#59DF02"/>
<path d="M67.7624 25.6037L67.1193 23.888H64.07L63.4357 25.6037H62.1094L64.6729 18.9028H66.5444L69.1079 25.6037H67.7606H67.7624ZM66.6929 22.6871L65.5746 19.9006L64.4946 22.6871H66.6929Z" fill="#59DF02"/>
<path d="M75.4239 18.9028V20.1037H72.9197V25.6037H71.6721V20.1037H69.168V18.9028H75.4239Z" fill="#59DF02"/>
<path d="M76.8281 18.9028H78.0845V25.6037H76.8281V18.9028Z" fill="#59DF02"/>
<path d="M81.1943 25.2866C80.6998 24.9873 80.3119 24.5722 80.0305 24.0394C79.7492 23.5067 79.6094 22.9116 79.6094 22.2524C79.6094 21.5932 79.7492 20.9981 80.0305 20.4654C80.3101 19.9345 80.698 19.5175 81.1943 19.2129C81.6888 18.91 82.2428 18.7585 82.8579 18.7585C83.473 18.7585 84.0252 18.91 84.5215 19.2129C85.016 19.5158 85.4039 19.9327 85.6853 20.4654C85.9649 20.9963 86.1064 21.5932 86.1064 22.2524C86.1064 22.9116 85.9666 23.5067 85.6853 24.0394C85.4057 24.5704 85.0177 24.9873 84.5215 25.2866C84.0269 25.5859 83.473 25.7356 82.8579 25.7356C82.2428 25.7356 81.6906 25.5859 81.1943 25.2866ZM81.1751 23.3838C81.3394 23.7205 81.57 23.9842 81.8636 24.1766C82.1572 24.369 82.4892 24.4653 82.8579 24.4653C83.2266 24.4653 83.5604 24.369 83.8574 24.1766C84.1545 23.986 84.3869 23.7205 84.5547 23.3838C84.7224 23.047 84.808 22.6711 84.808 22.2542C84.808 21.8373 84.7242 21.4507 84.5547 21.1139C84.3869 20.7772 84.1545 20.5135 83.8574 20.3211C83.5604 20.1304 83.2266 20.0342 82.8579 20.0342C82.4892 20.0342 82.1572 20.1304 81.8636 20.3211C81.57 20.5135 81.3411 20.7772 81.1751 21.1139C81.0091 21.4507 80.927 21.8302 80.927 22.2542C80.927 22.6782 81.0091 23.0488 81.1751 23.3838Z" fill="#59DF02"/>
<path d="M88.897 20.9714V25.6037H87.6406V18.9028H88.759L92.6383 23.5245V18.9028H93.8965V25.6037H92.7572L88.897 20.9714Z" fill="#59DF02"/>
<path d="M99.5983 20.2284C99.3012 20.0574 98.908 19.9719 98.4205 19.9719C97.8928 19.9719 97.4909 20.0485 97.213 20.2035C96.9352 20.3585 96.7971 20.5812 96.7971 20.8698C96.7971 21.1193 96.9282 21.2992 97.1938 21.4097C97.4577 21.5201 97.8893 21.5754 98.4904 21.5754C99.5127 21.5754 100.257 21.7339 100.722 22.0493C101.187 22.3664 101.419 22.8671 101.419 23.553C101.419 24.239 101.164 24.8073 100.652 25.1779C100.14 25.5485 99.3973 25.732 98.4205 25.732C97.8264 25.732 97.3039 25.6429 96.8513 25.4648C96.3987 25.2866 96.0475 25.0354 95.7976 24.7129C95.5459 24.3904 95.4219 24.0163 95.4219 23.5922H96.6696C96.6696 23.8755 96.8321 24.1018 97.1553 24.2728C97.4786 24.4439 97.9015 24.5312 98.4222 24.5312C98.9832 24.5312 99.4148 24.4474 99.7189 24.2782C100.023 24.1089 100.173 23.8666 100.173 23.5513C100.173 23.2822 100.03 23.088 99.7433 22.9669C99.4567 22.8457 98.9989 22.7851 98.3716 22.7851C97.3825 22.7851 96.6643 22.6337 96.2187 22.3308C95.7731 22.0279 95.5512 21.5397 95.5512 20.868C95.5512 20.1964 95.7958 19.6583 96.2834 19.2984C96.7709 18.9385 97.4839 18.7585 98.4222 18.7585C98.9902 18.7585 99.4917 18.8476 99.9268 19.0258C100.362 19.204 100.699 19.457 100.937 19.783C101.174 20.1091 101.293 20.485 101.293 20.909H100.046C100.046 20.6257 99.8971 20.3995 99.6 20.2284H99.5983Z" fill="#59DF02"/>
<path d="M18.7383 0.5H33.6074L27.3812 16.1182C26.9408 17.2246 25.4048 17.2246 24.9627 16.1182L18.7383 0.5Z" fill="white"/>
<path d="M17.0027 20.0022C17.0027 21.7964 16.288 23.4177 15.1347 24.599C13.9796 25.7731 12.3842 26.5018 10.6245 26.5018H0V12.4319C2.52507 12.5815 4.86141 12.9575 7.01253 13.5009C10.7049 14.4274 13.8486 15.8402 16.468 17.3956C16.8122 18.1938 17.0045 19.074 17.0045 20.0004L17.0027 20.0022Z" fill="white"/>
<path d="M17.0045 7.00134C17.0045 8.79548 16.2898 10.4204 15.1382 11.5963C14.8044 11.9366 14.4305 12.2395 14.0303 12.4942C10.4008 11.5785 5.7963 11.0921 0 11.4769V0.5H10.6263C14.1474 0.5 17.0027 3.41126 17.0027 7.00134H17.0045Z" fill="white"/>
<path d="M26.1735 26.5018C27.7881 26.5018 29.097 25.1672 29.097 23.521C29.097 21.8748 27.7881 20.5403 26.1735 20.5403C24.5589 20.5403 23.25 21.8748 23.25 23.521C23.25 25.1672 24.5589 26.5018 26.1735 26.5018Z" fill="#59DF02"/>
</g>
<defs>
<clipPath id="clip0_1906_232">
<rect width="130" height="26" fill="white" transform="translate(0 0.5)"/>
</clipPath>
</defs>
</svg>
