<svg width="113" height="112" viewBox="0 0 113 112" fill="none" xmlns="http://www.w3.org/2000/svg">
<mask id="mask0_34_92" style="mask-type:alpha" maskUnits="userSpaceOnUse" x="0" y="0" width="113" height="113">
<rect x="0.820312" y="0.000244141" width="112" height="112" fill="#D9D9D9"/>
</mask>
<g mask="url(#mask0_34_92)">
<path d="M57.5378 93.3337C57.0268 93.3337 56.5998 93.1602 56.2568 92.8133C55.9146 92.4664 55.7435 92.0344 55.7435 91.5172C55.7435 90.9992 55.9146 90.5741 56.2568 90.242C56.5998 89.9099 57.0268 89.7438 57.5378 89.7438H87.6926C88.4704 89.7438 89.1432 89.5047 89.711 89.0263C90.2795 88.5472 90.5638 87.9188 90.5638 87.141V53.9178C90.5638 44.9322 87.2458 37.4239 80.6098 31.393C73.9746 25.3621 66.0479 22.3467 56.8296 22.3467C47.6122 22.3467 39.6824 25.3621 33.0401 31.393C26.3979 37.4239 23.0768 44.9322 23.0768 53.9178V79.154C23.0768 79.5755 22.973 79.8905 22.7653 80.099C22.5569 80.3067 22.2419 80.4105 21.8203 80.4105C19.9116 80.4105 18.2678 79.7657 16.8888 78.4762C15.5098 77.1874 14.8203 75.5887 14.8203 73.68V64.8845C14.8203 63.4907 15.2734 62.254 16.1795 61.1745C17.0864 60.0942 18.1889 59.216 19.487 58.5402L19.5675 52.806C19.7114 47.9355 20.8139 43.4244 22.875 39.2727C24.9361 35.1201 27.6494 31.5062 31.0148 28.4308C34.3803 25.3555 38.2901 22.9595 42.7445 21.243C47.1988 19.5257 51.8908 18.667 56.8203 18.667C61.7499 18.667 66.4375 19.5257 70.8833 21.243C75.3283 22.9595 79.2382 25.3512 82.613 28.418C85.987 31.484 88.7003 35.0929 90.7528 39.2447C92.8046 43.3972 93.9114 47.9083 94.0731 52.778L94.1536 58.3967C95.3919 58.9769 96.4792 59.7578 97.4156 60.7393C98.3521 61.7201 98.8203 62.8984 98.8203 64.2743V74.38C98.8203 75.7559 98.3521 76.9346 97.4156 77.9162C96.4792 78.8969 95.3919 79.6774 94.1536 80.2577V87.141C94.1536 88.8731 93.5131 90.3384 92.2321 91.537C90.9511 92.7348 89.438 93.3337 87.6926 93.3337H57.5378ZM44.5936 62.641C43.7762 62.641 43.0669 62.3629 42.4656 61.8068C41.8644 61.2507 41.5638 60.5643 41.5638 59.7477C41.5638 58.931 41.8718 58.2368 42.4878 57.6652C43.1038 57.0935 43.8201 56.8077 44.6368 56.8077C45.4543 56.8077 46.1636 57.1009 46.7648 57.6873C47.366 58.273 47.6666 58.9745 47.6666 59.792C47.6666 60.6087 47.3586 61.2877 46.7426 61.829C46.1266 62.3703 45.4103 62.641 44.5936 62.641ZM69.0038 62.641C68.1864 62.641 67.477 62.3629 66.8758 61.8068C66.2746 61.2507 65.974 60.5643 65.974 59.7477C65.974 58.931 66.282 58.2368 66.898 57.6652C67.514 57.0935 68.2303 56.8077 69.047 56.8077C69.8644 56.8077 70.5738 57.1009 71.175 57.6873C71.7762 58.273 72.0768 58.9745 72.0768 59.792C72.0768 60.6087 71.7688 61.2877 71.1528 61.829C70.5368 62.3703 69.8205 62.641 69.0038 62.641ZM32.1675 55.767C31.7428 48.7787 33.9925 42.8228 38.9166 37.8995C43.8408 32.9754 49.8989 30.5133 57.091 30.5133C62.9951 30.5133 68.2116 32.3454 72.7406 36.0095C77.2696 39.6744 80.0486 44.4025 81.0776 50.1938C74.9931 50.116 69.362 48.5158 64.1843 45.393C59.0059 42.2694 55.0081 38.0154 52.191 32.6308C51.071 38.0154 48.7326 42.7345 45.1758 46.7883C41.619 50.8413 37.2829 53.8342 32.1675 55.767Z" fill="#0146B3"/>
</g>
</svg>
