<svg width="113" height="112" viewBox="0 0 113 112" fill="none" xmlns="http://www.w3.org/2000/svg">
<mask id="mask0_34_99" style="mask-type:alpha" maskUnits="userSpaceOnUse" x="0" y="0" width="113" height="113">
<rect x="0.12207" y="0.000244141" width="112" height="112" fill="#D9D9D9"/>
</mask>
<g mask="url(#mask0_34_99)">
<path d="M56.122 65.5762L64.3878 70.6827C65.0101 71.0716 65.6171 71.0327 66.209 70.566C66.8017 70.0993 67.0202 69.5071 66.8647 68.7892L64.6293 59.4197L71.998 53.1278C72.5603 52.5834 72.7038 51.9942 72.4285 51.3603C72.1539 50.7257 71.6904 50.3636 71.0378 50.2742L61.3988 49.405L57.6655 40.6445C57.3762 40.0044 56.8671 39.6843 56.1383 39.6843C55.4096 39.6843 54.8896 40.0044 54.5785 40.6445L50.8452 49.405L41.2062 50.2742C40.5536 50.3636 40.0901 50.7257 39.8155 51.3603C39.5402 51.9942 39.6837 52.5834 40.246 53.1278L47.6147 59.4197L45.3793 68.7892C45.2238 69.5071 45.4423 70.0993 46.035 70.566C46.6269 71.0327 47.2339 71.0716 47.8562 70.6827L56.122 65.5762ZM42.4977 88.6668H29.9163C28.171 88.6668 26.6578 88.0263 25.3768 86.7453C24.0958 85.4643 23.4553 83.9512 23.4553 82.2058V69.6922L14.3378 60.5408C13.6137 59.8922 13.1171 59.1747 12.848 58.3883C12.5789 57.602 12.4443 56.8133 12.4443 56.0223C12.4443 55.2313 12.5789 54.4353 12.848 53.6342C13.1171 52.8331 13.6137 52.1082 14.3378 51.4595L23.4553 42.3082V29.7945C23.4553 28.0492 24.0958 26.536 25.3768 25.255C26.6578 23.974 28.171 23.3335 29.9163 23.3335H42.43L51.5813 14.1262C52.2214 13.4861 52.9436 13.0252 53.7478 12.7437C54.5528 12.4629 55.3547 12.3225 56.1535 12.3225C56.9523 12.3225 57.7487 12.475 58.5428 12.7798C59.3377 13.0855 60.0533 13.5732 60.6895 14.2428L69.7813 23.3335H82.3277C84.073 23.3335 85.5862 23.974 86.8672 25.255C88.1482 26.536 88.7887 28.0492 88.7887 29.7945V42.3082L97.996 51.4595C98.6361 52.0996 99.097 52.8163 99.3785 53.6097C99.6593 54.403 99.7997 55.1987 99.7997 55.9967C99.7997 56.7947 99.6593 57.5915 99.3785 58.3872C99.097 59.1828 98.6361 59.9007 97.996 60.5408L88.7887 69.6922V82.2058C88.7887 83.9512 88.1482 85.4643 86.8672 86.7453C85.5862 88.0263 84.073 88.6668 82.3277 88.6668H69.7813L60.6895 97.7307C60.0447 98.3583 59.3284 98.8161 58.5405 99.1038C57.7534 99.3908 56.9639 99.5343 56.1722 99.5343C55.3609 99.5343 54.5703 99.3908 53.8003 99.1038C53.0296 98.8161 52.3288 98.3583 51.698 97.7307L42.4977 88.6668ZM43.9163 85.077L54.085 95.0473C54.6232 95.5863 55.3112 95.8558 56.1488 95.8558C56.9865 95.8558 57.6744 95.5863 58.2127 95.0473L68.253 85.077H82.3277C83.1646 85.077 83.8525 84.8079 84.3915 84.2697C84.9297 83.7307 85.1988 83.0427 85.1988 82.2058V68.193L95.3127 58.064C95.8517 57.5258 96.1212 56.8378 96.1212 56.0002C96.1212 55.1625 95.8517 54.4746 95.3127 53.9363L85.1837 43.8073V29.7945C85.1837 28.9576 84.9146 28.2697 84.3763 27.7307C83.8381 27.1925 83.1502 26.9233 82.3125 26.9233H68.2997L58.2127 16.8095C57.6744 16.2705 56.9865 16.001 56.1488 16.001C55.3112 16.001 54.6232 16.2705 54.085 16.8095L43.9443 26.9233H29.9315C29.0938 26.9233 28.4059 27.1925 27.8677 27.7307C27.3294 28.2697 27.0603 28.9576 27.0603 29.7945V43.8073L16.9313 53.9363C16.3923 54.4746 16.1228 55.1625 16.1228 56.0002C16.1228 56.8378 16.3923 57.5258 16.9313 58.064L27.0452 68.193V82.2058C27.0452 83.0427 27.3143 83.7307 27.8525 84.2697C28.3915 84.8079 29.0794 85.077 29.9163 85.077H43.9163Z" fill="#0146B3"/>
</g>
</svg>
