<svg width="113" height="112" viewBox="0 0 113 112" fill="none" xmlns="http://www.w3.org/2000/svg">
<mask id="mask0_34_85" style="mask-type:alpha" maskUnits="userSpaceOnUse" x="0" y="0" width="113" height="112">
<rect x="0.09375" width="112" height="112" fill="#D9D9D9"/>
</mask>
<g mask="url(#mask0_34_85)">
<path d="M56.0939 88.1102C51.9032 88.1102 47.956 87.3612 44.2522 85.8632C40.5484 84.3644 37.2502 82.3255 34.3577 79.7464L24.343 89.5557C24.0218 89.9562 23.6181 90.1565 23.132 90.1565C22.6467 90.1565 22.2337 89.971 21.893 89.6C21.5516 89.229 21.3809 88.8156 21.3809 88.3599C21.3809 87.9041 21.5516 87.5156 21.893 87.1944L31.791 77.2695C29.1621 74.2891 27.1107 70.9621 25.6369 67.2887C24.1637 63.616 23.4272 59.6676 23.4272 55.4435C23.4272 46.3241 26.5916 38.6 32.9204 32.2712C39.2499 25.9416 46.9744 22.7769 56.0939 22.7769H84.991C86.0185 22.7769 86.9036 23.1366 87.6464 23.856C88.3891 24.5755 88.7605 25.4722 88.7605 26.5464V55.4435C88.7605 64.5031 85.5961 72.2124 79.2674 78.5715C72.9378 84.9306 65.2133 88.1102 56.0939 88.1102ZM56.0939 84.5204C64.1711 84.5204 71.0365 81.6935 76.6902 76.0399C82.3439 70.3862 85.1707 63.5207 85.1707 55.4435V26.3667H56.0939C48.0166 26.3667 41.1512 29.1935 35.4975 34.8472C29.8439 40.5009 27.017 47.3663 27.017 55.4435C27.017 59.1442 27.6602 62.6524 28.9467 65.968C30.2331 69.2845 32.0069 72.226 34.2679 74.7927L59.2264 49.861C59.5468 49.5204 59.9501 49.35 60.4362 49.35C60.9215 49.35 61.3427 49.5425 61.6997 49.9275C62.0248 50.269 62.1874 50.6707 62.1874 51.1327C62.1874 51.5955 62.017 51.9976 61.6764 52.339L36.7447 77.1797C39.3005 79.4524 42.2451 81.244 45.5787 82.5545C48.9122 83.8651 52.4173 84.5204 56.0939 84.5204Z" fill="#0146B3"/>
</g>
</svg>
