<svg width="186" height="141" viewBox="0 0 186 141" fill="none" xmlns="http://www.w3.org/2000/svg">
<path d="M103.477 0.0643044H185.116L150.937 84.4811C148.518 90.4603 140.08 90.4603 137.66 84.4811L103.477 0.0643044Z" fill="white"/>
<path d="M93.9506 105.471C93.9506 115.168 90.0292 123.934 83.6991 130.313C77.3534 136.662 68.5989 140.598 58.9379 140.598H0.59375V64.5519C14.4559 65.3578 27.2871 67.3907 39.0927 70.3336C59.3627 75.3458 76.6282 82.9784 91.0083 91.3858C92.899 95.7012 93.9506 100.459 93.9506 105.471Z" fill="white"/>
<path d="M93.9506 35.2068C93.9506 44.8984 90.0292 53.6905 83.6991 60.0441C81.8653 61.8847 79.8191 63.5173 77.6176 64.9003C57.6895 59.9505 32.4103 57.3196 0.59375 59.3942V0.0643177H58.9379C78.2703 0.0643177 93.9506 15.8028 93.9506 35.2068Z" fill="white"/>
</svg>
