<svg width="255" height="51" viewBox="0 0 255 51" fill="none" xmlns="http://www.w3.org/2000/svg">
<g id="Layer_1" clip-path="url(#clip0_1320_516)">
<g id="Group">
<g id="Group_2">
<path id="Vector" d="M80.1162 1.50293H96.4663C98.0979 1.50293 99.4964 1.87338 100.662 2.61079C101.827 3.35169 102.708 4.33374 103.301 5.56042C103.898 6.78711 104.192 8.12912 104.192 9.57947C104.192 10.4497 104.038 11.2815 103.726 12.0748C103.414 12.8681 102.962 13.5915 102.365 14.2521C103.27 14.8846 103.956 15.671 104.422 16.6076C104.888 17.5442 105.121 18.5682 105.121 19.676C105.121 21.1543 104.83 22.5068 104.247 23.7335C103.664 24.9602 102.784 25.9457 101.608 26.6832C100.429 27.4241 99.0131 27.791 97.3541 27.791H80.1094V1.50293H80.1162ZM86.0564 11.8371H96.4629C97.0079 11.8371 97.4398 11.6519 97.7654 11.2815C98.0876 10.911 98.2522 10.4357 98.2522 9.85557V9.10418C98.2522 8.49608 98.0979 8.01729 97.786 7.65732C97.4741 7.30085 97.0353 7.12261 96.4663 7.12261H86.0599V11.8336L86.0564 11.8371ZM86.0564 22.2098H97.3575C97.9265 22.2098 98.379 22.0176 98.7149 21.6366C99.0508 21.2557 99.2188 20.7734 99.2188 20.1898V19.4384C99.2188 18.8303 99.0508 18.3445 98.7149 17.974C98.379 17.6036 97.9231 17.4184 97.3575 17.4184H86.0564V22.2098Z" fill="white"/>
<path id="Vector_2" d="M126.993 1.50293L137.207 27.7945H130.801L128.316 21.3396H117.56L115.112 27.7945H108.781L119.033 1.50293H126.996H126.993ZM119.575 15.7583H126.293L122.876 7.36375L119.575 15.7583Z" fill="white"/>
<path id="Vector_3" d="M153.588 18.5297V27.7945H147.686V18.5297L137.238 1.50293H144.073L150.675 12.6305L157.122 1.50293H164.036L153.588 18.5297Z" fill="white"/>
<path id="Vector_4" d="M182.055 1.50293L192.27 27.7945H185.863L183.378 21.3396H172.622L170.175 27.7945H163.844L174.096 1.50293H182.059H182.055ZM174.638 15.7583H181.356L177.938 7.36375L174.638 15.7583Z" fill="white"/>
<path id="Vector_5" d="M197.402 1.50293H215.151C216.807 1.50293 218.219 1.87338 219.384 2.61079C220.55 3.35169 221.424 4.33374 222.006 5.56042C222.589 6.78711 222.88 8.12912 222.88 9.57947C222.88 11.4527 222.377 13.1023 221.365 14.5281C220.354 15.954 218.918 16.8522 217.053 17.2192C217.105 17.2995 217.163 17.3764 217.228 17.4568C217.293 17.5372 217.352 17.642 217.403 17.7748L223.305 27.791H216.587L210.53 17.4184H203.346V27.791H197.406V1.50293H197.402ZM203.343 11.8371H215.148C215.717 11.8371 216.159 11.6519 216.467 11.2815C216.779 10.911 216.933 10.4357 216.933 9.85557V9.10418C216.933 8.49608 216.779 8.01729 216.467 7.65732C216.155 7.30085 215.717 7.12261 215.148 7.12261H203.343V11.8336V11.8371Z" fill="white"/>
<path id="Vector_6" d="M229.523 1.50293H242.028C244.643 1.50293 246.926 2.10404 248.883 3.30277C250.837 4.50499 252.345 6.10911 253.408 8.11514C254.47 10.1212 254.998 12.2984 254.998 14.6505C254.998 17.0025 254.467 19.1448 253.408 21.1648C252.345 23.1848 250.83 24.7959 248.862 25.9947C246.895 27.1969 244.616 27.7945 242.028 27.7945H229.523V1.50293ZM235.464 22.2133H242.028C243.426 22.2133 244.643 21.8638 245.678 21.1648C246.713 20.4659 247.505 19.5362 248.047 18.3725C248.592 17.2122 248.862 15.9715 248.862 14.6505C248.862 13.3294 248.592 12.0957 248.047 10.9494C247.502 9.79965 246.713 8.87701 245.678 8.17805C244.643 7.47908 243.426 7.1296 242.028 7.1296H235.464V22.2168V22.2133Z" fill="white"/>
</g>
<g id="Group_3">
<path id="Vector_7" d="M86.8849 46.8658H87.1385L91.2552 36.0947H93.8568L88.8284 49.2388H85.1573L80.1289 36.0947H82.7717L86.8883 46.8658H86.8849Z" fill="#59DF02"/>
<path id="Vector_8" d="M104.046 49.2427L102.784 45.8772H96.8029L95.5587 49.2427H92.957L97.9855 36.0986H101.657L106.685 49.2427H104.042H104.046ZM101.948 43.5216L99.7542 38.0557L97.6358 43.5216H101.948Z" fill="#59DF02"/>
<path id="Vector_9" d="M116.663 39.1844C116.001 38.6043 115.213 38.3142 114.294 38.3142C113.568 38.3142 112.92 38.5029 112.344 38.8769C111.768 39.2543 111.319 39.7716 110.994 40.4321C110.668 41.0926 110.507 41.837 110.507 42.6688C110.507 43.5006 110.668 44.2275 110.994 44.8845C111.316 45.545 111.768 46.0623 112.344 46.4397C112.92 46.8171 113.571 47.0059 114.294 47.0059C115.213 47.0059 116.001 46.7158 116.663 46.1356C117.321 45.5555 117.756 44.7901 117.965 43.8396H120.588C120.433 44.9474 120.067 45.933 119.491 46.7892C118.915 47.6454 118.178 48.3129 117.277 48.7882C116.375 49.2635 115.384 49.5012 114.298 49.5012C113.095 49.5012 112.008 49.2076 111.035 48.6205C110.065 48.0333 109.304 47.219 108.752 46.1741C108.203 45.1326 107.926 43.9619 107.926 42.6688C107.926 41.3757 108.2 40.2084 108.752 39.1635C109.3 38.122 110.061 37.3042 111.035 36.7066C112.005 36.1125 113.091 35.8154 114.298 35.8154C115.384 35.8154 116.378 36.0531 117.277 36.5284C118.178 37.0037 118.915 37.6712 119.491 38.5274C120.067 39.3871 120.433 40.3692 120.588 41.477H117.965C117.756 40.5265 117.325 39.7611 116.663 39.1809V39.1844Z" fill="#59DF02"/>
<path id="Vector_10" d="M132.917 49.2427L131.655 45.8772H125.674L124.43 49.2427H121.828L126.857 36.0986H130.528L135.556 49.2427H132.913H132.917ZM130.819 43.5216L128.625 38.0557L126.507 43.5216H130.819Z" fill="#59DF02"/>
<path id="Vector_11" d="M147.951 36.0986V38.4541H143.039V49.2427H140.592V38.4541H135.68V36.0986H147.951Z" fill="#59DF02"/>
<path id="Vector_12" d="M150.715 36.0986H153.179V49.2427H150.715V36.0986Z" fill="#59DF02"/>
<path id="Vector_13" d="M159.277 48.6205C158.307 48.0333 157.546 47.219 156.994 46.1741C156.442 45.1291 156.168 43.9619 156.168 42.6688C156.168 41.3757 156.442 40.2084 156.994 39.1635C157.542 38.122 158.303 37.3042 159.277 36.7066C160.247 36.1125 161.334 35.8154 162.54 35.8154C163.747 35.8154 164.83 36.1125 165.803 36.7066C166.773 37.3007 167.534 38.1185 168.086 39.1635C168.634 40.2049 168.912 41.3757 168.912 42.6688C168.912 43.9619 168.638 45.1291 168.086 46.1741C167.538 47.2156 166.777 48.0333 165.803 48.6205C164.833 49.2076 163.747 49.5012 162.54 49.5012C161.334 49.5012 160.25 49.2076 159.277 48.6205ZM159.239 44.888C159.561 45.5485 160.014 46.0658 160.59 46.4432C161.166 46.8206 161.817 47.0094 162.54 47.0094C163.263 47.0094 163.918 46.8206 164.501 46.4432C165.083 46.0692 165.539 45.5485 165.868 44.888C166.197 44.2275 166.365 43.4901 166.365 42.6723C166.365 41.8545 166.201 41.0961 165.868 40.4356C165.539 39.7751 165.083 39.2578 164.501 38.8804C163.918 38.5064 163.263 38.3177 162.54 38.3177C161.817 38.3177 161.166 38.5064 160.59 38.8804C160.014 39.2578 159.565 39.7751 159.239 40.4356C158.914 41.0961 158.752 41.8405 158.752 42.6723C158.752 43.504 158.914 44.231 159.239 44.888Z" fill="#59DF02"/>
<path id="Vector_14" d="M174.386 40.1561V49.2427H171.922V36.0986H174.116L181.725 45.1642V36.0986H184.193V49.2427H181.958L174.386 40.1561Z" fill="#59DF02"/>
<path id="Vector_15" d="M195.364 38.6987C194.781 38.3632 194.01 38.1954 193.054 38.1954C192.019 38.1954 191.23 38.3457 190.685 38.6497C190.14 38.9538 189.869 39.3906 189.869 39.9568C189.869 40.4461 190.127 40.7991 190.648 41.0157C191.165 41.2324 192.012 41.3407 193.191 41.3407C195.196 41.3407 196.656 41.6518 197.568 42.2704C198.48 42.8925 198.936 43.8745 198.936 45.22C198.936 46.5655 198.435 47.6804 197.431 48.4073C196.427 49.1342 194.97 49.4942 193.054 49.4942C191.888 49.4942 190.864 49.3194 189.976 48.97C189.088 48.6205 188.399 48.1277 187.909 47.4951C187.415 46.8626 187.172 46.1287 187.172 45.2969H189.619C189.619 45.8526 189.938 46.2964 190.572 46.6319C191.206 46.9674 192.036 47.1387 193.057 47.1387C194.158 47.1387 195.004 46.9744 195.601 46.6424C196.197 46.3104 196.492 45.8351 196.492 45.2165C196.492 44.6888 196.211 44.3079 195.649 44.0702C195.086 43.8326 194.188 43.7137 192.958 43.7137C191.018 43.7137 189.609 43.4167 188.735 42.8226C187.861 42.2284 187.426 41.2709 187.426 39.9533C187.426 38.6358 187.905 37.5803 188.862 36.8744C189.818 36.1684 191.217 35.8154 193.057 35.8154C194.171 35.8154 195.155 35.9902 196.008 36.3397C196.862 36.6891 197.524 37.1854 197.99 37.825C198.456 38.4645 198.689 39.2019 198.689 40.0337H196.242C196.242 39.478 195.95 39.0342 195.367 38.6987H195.364Z" fill="#59DF02"/>
</g>
</g>
<g id="Group_4">
<g id="Group_5">
<path id="Vector_16" d="M36.75 0H65.9163L53.7034 30.6356C52.8396 32.8059 49.8267 32.8059 48.9595 30.6356L36.75 0Z" fill="white"/>
<path id="Vector_17" d="M33.3515 38.2548C33.3515 41.7741 31.9496 44.9544 29.6873 47.2714C27.4216 49.5745 24.2921 51.0039 20.8404 51.0039H0V23.4053C4.95302 23.6988 9.53585 24.4362 13.7553 25.5022C20.9981 27.3195 27.1645 30.0909 32.3026 33.1419C32.9779 34.7075 33.3549 36.434 33.3549 38.2513L33.3515 38.2548Z" fill="white"/>
<path id="Vector_18" d="M33.3549 12.7526C33.3549 16.2719 31.953 19.4592 29.6941 21.7658C29.0394 22.4333 28.3059 23.0274 27.521 23.5272C20.4016 21.7308 11.3697 20.7767 0 21.5316V0H20.8438C27.7506 0 33.3515 5.71055 33.3515 12.7526H33.3549Z" fill="white"/>
</g>
<path id="Vector_19" d="M51.34 51.0042C54.5071 51.0042 57.0745 48.3865 57.0745 45.1574C57.0745 41.9283 54.5071 39.3105 51.34 39.3105C48.1729 39.3105 45.6055 41.9283 45.6055 45.1574C45.6055 48.3865 48.1729 51.0042 51.34 51.0042Z" fill="#59DF02"/>
</g>
</g>
<defs>
<clipPath id="clip0_1320_516">
<rect width="255" height="51" fill="white"/>
</clipPath>
</defs>
</svg>
