<svg width="300" height="102" viewBox="0 0 300 102" fill="none" xmlns="http://www.w3.org/2000/svg">
<path d="M239.09 4.76074H249.801V76.435H239.09V4.76074Z" fill="#34A853"/>
<path d="M102.655 29.1598C89.16 29.1598 78.1682 39.4165 78.1682 53.5413C78.1682 67.5786 89.16 77.9228 102.655 77.9228C116.149 77.9228 127.141 67.5786 127.141 53.5413C127.141 39.399 116.149 29.1598 102.655 29.1598ZM102.655 68.3137C95.2685 68.3137 88.8975 62.2227 88.8975 53.5413C88.8975 44.7724 95.2685 38.7689 102.655 38.7689C110.041 38.7689 116.412 44.7724 116.412 53.5413C116.412 62.2227 110.041 68.3137 102.655 68.3137Z" fill="#EA4335"/>
<path d="M39.1017 36.6335V46.9777H63.8508C63.1156 52.7887 61.1728 57.0419 58.2148 59.9999C54.6092 63.6055 48.9733 67.5786 39.1017 67.5786C23.8567 67.5786 11.9547 55.2916 11.9547 40.0466C11.9547 24.8016 23.8567 12.5321 39.1017 12.5321C47.328 12.5321 53.3315 15.7701 57.7598 19.9183L65.0585 12.6196C58.8624 6.70361 50.6536 2.18787 39.1017 2.18787C18.2207 2.18787 0.682861 19.1832 0.682861 40.0641C0.682861 60.945 18.2383 77.9403 39.1017 77.9403C50.3735 77.9403 58.8624 74.2472 65.5135 67.3161C72.3572 60.4725 74.475 50.8809 74.475 43.1096C74.475 40.7117 74.2825 38.4888 73.9149 36.651H39.1017V36.6335Z" fill="#4285F4"/>
<path d="M279.171 68.3138C273.728 68.3138 269.842 65.8284 267.339 60.9276L299.947 47.4328L298.844 44.6674C296.814 39.224 290.618 29.1423 277.964 29.1423C265.396 29.1423 254.965 39.0315 254.965 53.5238C254.965 67.1936 265.309 77.9054 279.171 77.9054C290.356 77.9054 296.814 71.0617 299.492 67.1061L291.178 61.5577C288.413 65.6358 284.632 68.3138 279.171 68.3138ZM278.349 38.5764C282.602 38.5764 286.207 40.6942 287.398 43.7572L265.606 52.8062C265.326 43.3722 272.888 38.5764 278.349 38.5764Z" fill="#EA4335"/>
<path d="M221.534 34.6032H221.167C218.769 31.7327 214.148 29.1598 208.32 29.1598C196.12 29.1598 184.953 39.8716 184.953 53.6463C184.953 67.3161 196.138 77.9403 208.32 77.9403C214.131 77.9403 218.751 75.3499 221.167 72.3919H221.534V75.91C221.534 85.239 216.546 90.2273 208.512 90.2273C201.949 90.2273 197.888 85.5191 196.225 81.5459L186.896 85.4315C189.574 91.8901 196.68 99.8364 208.512 99.8364C221.079 99.8364 231.703 92.4502 231.703 74.4397V30.63H221.534V34.6032ZM209.247 68.3137C201.861 68.3137 195.665 62.1177 195.665 53.6288C195.665 45.0349 201.861 38.7514 209.247 38.7514C216.546 38.7514 222.269 45.0349 222.269 53.6288C222.269 62.1352 216.546 68.3137 209.247 68.3137Z" fill="#4285F4"/>
<path d="M156.039 29.1598C142.544 29.1598 131.552 39.4165 131.552 53.5413C131.552 67.5786 142.544 77.9228 156.039 77.9228C169.533 77.9228 180.525 67.5786 180.525 53.5413C180.525 39.399 169.533 29.1598 156.039 29.1598ZM156.039 68.3137C148.652 68.3137 142.281 62.2227 142.281 53.5413C142.281 44.7724 148.652 38.7689 156.039 38.7689C163.425 38.7689 169.796 44.7724 169.796 53.5413C169.813 62.2227 163.442 68.3137 156.039 68.3137Z" fill="#FBBC05"/>
</svg>
