<svg width="131" height="27" viewBox="0 0 131 27" fill="none" xmlns="http://www.w3.org/2000/svg">
<g id="Layer_1" clip-path="url(#clip0_530_580)">
<g id="Group">
<g id="Group_2">
<path id="Vector" d="M41.2066 0.859375H49.542C50.3738 0.859375 51.0867 1.04823 51.6809 1.42417C52.275 1.80188 52.7241 2.30253 53.0264 2.9279C53.3304 3.55327 53.4807 4.23743 53.4807 4.97683C53.4807 5.42047 53.4021 5.8445 53.2431 6.24895C53.0841 6.65339 52.8534 7.02219 52.5493 7.35893C53.0107 7.68141 53.3602 8.08229 53.5978 8.55978C53.8355 9.03727 53.9543 9.5593 53.9543 10.1241C53.9543 10.8777 53.8058 11.5672 53.5087 12.1926C53.2116 12.818 52.7625 13.3204 52.1631 13.6964C51.562 14.0741 50.8403 14.2611 49.9946 14.2611H41.2031V0.859375H41.2066ZM44.235 6.12779H49.5402C49.8181 6.12779 50.0382 6.03336 50.2043 5.8445C50.3685 5.65565 50.4524 5.41334 50.4524 5.11758V4.73452C50.4524 4.42451 50.3738 4.18042 50.2147 3.99691C50.0557 3.81518 49.832 3.72431 49.542 3.72431H44.2367V6.12601L44.235 6.12779ZM44.235 11.4158H49.9963C50.2864 11.4158 50.517 11.3178 50.6883 11.1236C50.8595 10.9294 50.9452 10.6835 50.9452 10.386V10.0029C50.9452 9.69293 50.8595 9.44527 50.6883 9.25641C50.517 9.06756 50.2846 8.97313 49.9963 8.97313H44.235V11.4158Z" fill="#0146B3"/>
<path id="Vector_2" d="M65.1045 0.859375L70.3119 14.2629H67.0459L65.779 10.9722H60.2955L59.0479 14.2629H55.8203L61.0469 0.859375H65.1063H65.1045ZM61.323 8.12683H64.748L63.0058 3.84725L61.323 8.12683Z" fill="#0146B3"/>
<path id="Vector_3" d="M78.6635 9.5397V14.2629H75.6544V9.5397L70.3281 0.859375H73.8125L77.1781 6.53223L80.4651 0.859375H83.9897L78.6635 9.5397Z" fill="#0146B3"/>
<path id="Vector_4" d="M93.2139 0.859375L98.4213 14.2629H95.1553L93.8884 10.9722H88.4049L87.1572 14.2629H83.9297L89.1563 0.859375H93.2156H93.2139ZM89.4324 8.12683H92.8574L91.1152 3.84725L89.4324 8.12683Z" fill="#0146B3"/>
<path id="Vector_5" d="M101 0.859375H110.048C110.892 0.859375 111.612 1.04823 112.206 1.42417C112.801 1.80188 113.246 2.30253 113.543 2.9279C113.84 3.55327 113.989 4.23743 113.989 4.97683C113.989 5.93181 113.732 6.77276 113.216 7.49968C112.701 8.22661 111.969 8.6845 111.018 8.87157C111.044 8.91255 111.074 8.95175 111.107 8.99273C111.14 9.03371 111.17 9.08716 111.196 9.15486L114.206 14.2611H110.78L107.693 8.97313H104.03V14.2611H101.002V0.859375H101ZM104.028 6.12779H110.047C110.337 6.12779 110.562 6.03336 110.719 5.8445C110.878 5.65565 110.957 5.41334 110.957 5.11758V4.73452C110.957 4.42451 110.878 4.18042 110.719 3.99691C110.56 3.81518 110.337 3.72431 110.047 3.72431H104.028V6.12601V6.12779Z" fill="#0146B3"/>
<path id="Vector_6" d="M117.375 0.859375H123.75C125.083 0.859375 126.247 1.16582 127.245 1.77694C128.241 2.38983 129.01 3.20762 129.551 4.23031C130.093 5.25299 130.362 6.36297 130.362 7.56204C130.362 8.76111 130.091 9.85328 129.551 10.8831C129.01 11.9129 128.237 12.7342 127.234 13.3454C126.231 13.9583 125.069 14.2629 123.75 14.2629H117.375V0.859375ZM120.403 11.4176H123.75C124.463 11.4176 125.083 11.2394 125.611 10.8831C126.138 10.5267 126.542 10.0528 126.818 9.45953C127.096 8.86801 127.234 8.23551 127.234 7.56204C127.234 6.88857 127.096 6.25963 126.818 5.67525C126.54 5.08907 126.138 4.61871 125.611 4.26238C125.083 3.90604 124.463 3.72787 123.75 3.72787H120.403V11.4194V11.4176Z" fill="#0146B3"/>
</g>
<g id="Group_3">
<path id="Vector_7" d="M44.6552 23.9853H44.7845L46.8832 18.4941H48.2095L45.646 25.195H43.7745L41.2109 18.4941H42.5582L44.6569 23.9853H44.6552Z" fill="#46B301"/>
<path id="Vector_8" d="M53.403 25.197L52.7599 23.4812H49.7106L49.0763 25.197H47.75L50.3135 18.4961H52.185L54.7486 25.197H53.4013H53.403ZM52.3336 22.2804L51.2152 19.4938L50.1353 22.2804H52.3336Z" fill="#46B301"/>
<path id="Vector_9" d="M59.8371 20.0691C59.4998 19.7733 59.0979 19.6255 58.6296 19.6255C58.2591 19.6255 57.9288 19.7217 57.6353 19.9123C57.3417 20.1047 57.1128 20.3684 56.9468 20.7052C56.7808 21.0419 56.6986 21.4214 56.6986 21.8454C56.6986 22.2695 56.7808 22.6401 56.9468 22.975C57.111 23.3117 57.3417 23.5754 57.6353 23.7679C57.9288 23.9603 58.2609 24.0565 58.6296 24.0565C59.0979 24.0565 59.4998 23.9086 59.8371 23.6129C60.1726 23.3171 60.3945 22.9269 60.5011 22.4423H61.8379C61.7593 23.0071 61.5723 23.5095 61.2787 23.946C60.9851 24.3825 60.6094 24.7228 60.1499 24.9651C59.6903 25.2075 59.1853 25.3286 58.6313 25.3286C58.018 25.3286 57.464 25.1789 56.9677 24.8796C56.4732 24.5803 56.0853 24.1652 55.8039 23.6324C55.5244 23.1015 55.3828 22.5046 55.3828 21.8454C55.3828 21.1862 55.5226 20.5911 55.8039 20.0584C56.0835 19.5275 56.4715 19.1106 56.9677 18.8059C57.4623 18.503 58.0162 18.3516 58.6313 18.3516C59.1853 18.3516 59.692 18.4727 60.1499 18.715C60.6094 18.9573 60.9851 19.2976 61.2787 19.7341C61.5723 20.1724 61.7593 20.6731 61.8379 21.2379H60.5011C60.3945 20.7533 60.1743 20.3631 59.8371 20.0673V20.0691Z" fill="#46B301"/>
<path id="Vector_10" d="M68.1218 25.197L67.4787 23.4812H64.4294L63.7951 25.197H62.4688L65.0323 18.4961H66.9038L69.4673 25.197H68.12H68.1218ZM67.0523 22.2804L65.9339 19.4938L64.854 22.2804H67.0523Z" fill="#46B301"/>
<path id="Vector_11" d="M75.7871 18.4961V19.6969H73.283V25.197H72.0354V19.6969H69.5312V18.4961H75.7871Z" fill="#46B301"/>
<path id="Vector_12" d="M77.1953 18.4961H78.4517V25.197H77.1953V18.4961Z" fill="#46B301"/>
<path id="Vector_13" d="M81.5615 24.8796C81.067 24.5803 80.679 24.1652 80.3977 23.6324C80.1164 23.0997 79.9766 22.5046 79.9766 21.8454C79.9766 21.1862 80.1164 20.5911 80.3977 20.0584C80.6773 19.5275 81.0652 19.1106 81.5615 18.8059C82.056 18.503 82.61 18.3516 83.2251 18.3516C83.8402 18.3516 84.3924 18.503 84.8887 18.8059C85.3832 19.1088 85.7711 19.5257 86.0525 20.0584C86.332 20.5893 86.4736 21.1862 86.4736 21.8454C86.4736 22.5046 86.3338 23.0997 86.0525 23.6324C85.7729 24.1634 85.3849 24.5803 84.8887 24.8796C84.3941 25.1789 83.8402 25.3286 83.2251 25.3286C82.61 25.3286 82.0578 25.1789 81.5615 24.8796ZM81.5423 22.9768C81.7065 23.3135 81.9372 23.5772 82.2308 23.7696C82.5243 23.9621 82.8564 24.0583 83.2251 24.0583C83.5938 24.0583 83.9276 23.9621 84.2246 23.7696C84.5217 23.579 84.7541 23.3135 84.9219 22.9768C85.0896 22.6401 85.1752 22.2641 85.1752 21.8472C85.1752 21.4303 85.0914 21.0437 84.9219 20.7069C84.7541 20.3702 84.5217 20.1065 84.2246 19.9141C83.9276 19.7235 83.5938 19.6272 83.2251 19.6272C82.8564 19.6272 82.5243 19.7235 82.2308 19.9141C81.9372 20.1065 81.7083 20.3702 81.5423 20.7069C81.3763 21.0437 81.2941 21.4232 81.2941 21.8472C81.2941 22.2712 81.3763 22.6418 81.5423 22.9768Z" fill="#46B301"/>
<path id="Vector_14" d="M89.2642 20.5646V25.197H88.0078V18.4961H89.1262L93.0055 23.1178V18.4961H94.2637V25.197H93.1244L89.2642 20.5646Z" fill="#46B301"/>
<path id="Vector_15" d="M99.9577 19.8214C99.6606 19.6504 99.2674 19.5649 98.7799 19.5649C98.2521 19.5649 97.8502 19.6415 97.5724 19.7965C97.2945 19.9515 97.1565 20.1742 97.1565 20.4628C97.1565 20.7123 97.2876 20.8922 97.5532 21.0027C97.817 21.1132 98.2487 21.1684 98.8498 21.1684C99.872 21.1684 100.616 21.327 101.081 21.6423C101.546 21.9595 101.779 22.4601 101.779 23.1461C101.779 23.832 101.523 24.4004 101.011 24.7709C100.499 25.1415 99.7567 25.325 98.7799 25.325C98.1857 25.325 97.6633 25.236 97.2107 25.0578C96.7581 24.8796 96.4068 24.6284 96.1569 24.3059C95.9053 23.9834 95.7812 23.6093 95.7812 23.1852H97.0289C97.0289 23.4685 97.1914 23.6948 97.5147 23.8658C97.838 24.0369 98.2609 24.1242 98.7816 24.1242C99.3426 24.1242 99.7742 24.0405 100.078 23.8712C100.382 23.7019 100.533 23.4596 100.533 23.1443C100.533 22.8752 100.389 22.681 100.103 22.5599C99.8161 22.4387 99.3583 22.3782 98.731 22.3782C97.7419 22.3782 97.0237 22.2267 96.5781 21.9238C96.1325 21.6209 95.9106 21.1328 95.9106 20.4611C95.9106 19.7894 96.1552 19.2513 96.6427 18.8914C97.1303 18.5315 97.8432 18.3516 98.7816 18.3516C99.3495 18.3516 99.8511 18.4406 100.286 18.6188C100.721 18.797 101.059 19.05 101.296 19.376C101.534 19.7021 101.653 20.078 101.653 20.502H100.405C100.405 20.2188 100.256 19.9925 99.9594 19.8214H99.9577Z" fill="#46B301"/>
</g>
</g>
<g id="Group_4">
<g id="Group_5">
<path id="Vector_16" d="M19.0938 0.09375H33.9628L27.7367 15.7119C27.2963 16.8183 25.7603 16.8183 25.3182 15.7119L19.0938 0.09375Z" fill="#0146B3"/>
<path id="Vector_17" d="M17.3621 19.5957C17.3621 21.3899 16.6474 23.0112 15.4941 24.1925C14.339 25.3666 12.7436 26.0953 10.9839 26.0953H0.359375V12.0254C2.88444 12.1751 5.22079 12.551 7.3719 13.0944C11.0643 14.0209 14.2079 15.4337 16.8274 16.9891C17.1716 17.7873 17.3638 18.6675 17.3638 19.594L17.3621 19.5957Z" fill="#0146B3"/>
<path id="Vector_18" d="M17.3638 6.59509C17.3638 8.38923 16.6491 10.0141 15.4976 11.19C15.1638 11.5303 14.7898 11.8332 14.3897 12.088C10.7602 11.1722 6.15568 10.6858 0.359375 11.0707V0.09375H10.9856C14.5068 0.09375 17.3621 3.00501 17.3621 6.59509H17.3638Z" fill="#0146B3"/>
</g>
<path id="Vector_19" d="M26.5329 26.0953C28.1475 26.0953 29.4564 24.7608 29.4564 23.1145C29.4564 21.4683 28.1475 20.1338 26.5329 20.1338C24.9183 20.1338 23.6094 21.4683 23.6094 23.1145C23.6094 24.7608 24.9183 26.0953 26.5329 26.0953Z" fill="#46B301"/>
</g>
</g>
<defs>
<clipPath id="clip0_530_580">
<rect width="130" height="26" fill="white" transform="translate(0.359375 0.09375)"/>
</clipPath>
</defs>
</svg>
