<svg width="130" height="26" viewBox="0 0 130 26" fill="none" xmlns="http://www.w3.org/2000/svg">
<g id="Layer_1" clip-path="url(#clip0_251_152)">
<g id="Group">
<g id="Group_2">
<path id="Vector" d="M40.8472 0.766113H49.1826C50.0144 0.766113 50.7273 0.954971 51.3215 1.3309C51.9156 1.70862 52.3647 2.20927 52.667 2.83464C52.9711 3.46001 53.1214 4.14417 53.1214 4.88357C53.1214 5.3272 53.0427 5.75124 52.8837 6.15568C52.7247 6.56012 52.494 6.92893 52.19 7.26567C52.6513 7.58815 53.0008 7.98903 53.2384 8.46652C53.4761 8.94401 53.5949 9.46604 53.5949 10.0308C53.5949 10.7845 53.4464 11.474 53.1493 12.0994C52.8522 12.7247 52.4031 13.2272 51.8038 13.6031C51.2026 13.9808 50.4809 14.1679 49.6352 14.1679H40.8438V0.766113H40.8472ZM43.8756 6.03453H49.1808C49.4587 6.03453 49.6789 5.9401 49.8449 5.75124C50.0091 5.56239 50.093 5.32008 50.093 5.02432V4.64126C50.093 4.33125 50.0144 4.08716 49.8554 3.90365C49.6963 3.72191 49.4727 3.63105 49.1826 3.63105H43.8773V6.03275L43.8756 6.03453ZM43.8756 11.3225H49.6369C49.927 11.3225 50.1577 11.2246 50.3289 11.0303C50.5002 10.8361 50.5858 10.5903 50.5858 10.2927V9.90967C50.5858 9.59966 50.5002 9.35201 50.3289 9.16315C50.1577 8.9743 49.9253 8.87987 49.6369 8.87987H43.8756V11.3225Z" fill="#0146B3"/>
<path id="Vector_2" d="M64.7452 0.766113L69.9526 14.1697H66.6866L65.4197 10.8789H59.9362L58.6885 14.1697H55.4609L60.6876 0.766113H64.7469H64.7452ZM60.9637 8.03357H64.3887L62.6465 3.75398L60.9637 8.03357Z" fill="#0146B3"/>
<path id="Vector_3" d="M78.3041 9.44644V14.1697H75.295V9.44644L69.9688 0.766113H73.4532L76.8188 6.43897L80.1057 0.766113H83.6303L78.3041 9.44644Z" fill="#0146B3"/>
<path id="Vector_4" d="M92.8584 0.766113L98.0659 14.1697H94.7999L93.533 10.8789H88.0494L86.8018 14.1697H83.5742L88.8009 0.766113H92.8602H92.8584ZM89.077 8.03357H92.502L90.7597 3.75398L89.077 8.03357Z" fill="#0146B3"/>
<path id="Vector_5" d="M100.637 0.766113H109.685C110.529 0.766113 111.249 0.954971 111.843 1.3309C112.437 1.70862 112.883 2.20927 113.18 2.83464C113.477 3.46001 113.626 4.14417 113.626 4.88357C113.626 5.83855 113.369 6.6795 112.853 7.40642C112.338 8.13334 111.605 8.59124 110.655 8.77831C110.681 8.81929 110.711 8.85849 110.744 8.89946C110.777 8.94044 110.807 8.99389 110.833 9.0616L113.842 14.1679H110.417L107.329 8.87987H103.667V14.1679H100.638V0.766113H100.637ZM103.665 6.03453H109.683C109.973 6.03453 110.199 5.9401 110.356 5.75124C110.515 5.56239 110.594 5.32008 110.594 5.02432V4.64126C110.594 4.33125 110.515 4.08716 110.356 3.90365C110.197 3.72191 109.973 3.63105 109.683 3.63105H103.665V6.03275V6.03453Z" fill="#0146B3"/>
<path id="Vector_6" d="M117.012 0.766113H123.386C124.72 0.766113 125.884 1.07256 126.881 1.68368C127.877 2.29657 128.646 3.11436 129.188 4.13704C129.73 5.15973 129.999 6.26971 129.999 7.46878C129.999 8.66785 129.728 9.76001 129.188 10.7898C128.646 11.8196 127.874 12.641 126.871 13.2521C125.868 13.865 124.706 14.1697 123.386 14.1697H117.012V0.766113ZM120.04 11.3243H123.386C124.099 11.3243 124.72 11.1462 125.247 10.7898C125.775 10.4335 126.179 9.95956 126.455 9.36626C126.733 8.77475 126.871 8.14225 126.871 7.46878C126.871 6.79531 126.733 6.16637 126.455 5.58198C126.177 4.99581 125.775 4.52545 125.247 4.16911C124.72 3.81278 124.099 3.63461 123.386 3.63461H120.04V11.3261V11.3243Z" fill="#0146B3"/>
</g>
<g id="Group_3">
<path id="Vector_7" d="M44.2919 23.8925H44.4212L46.5199 18.4014H47.8462L45.2827 25.1023H43.4112L40.8477 18.4014H42.1949L44.2936 23.8925H44.2919Z" fill="#46B301"/>
<path id="Vector_8" d="M53.0436 25.1042L52.4006 23.3885H49.3513L48.7169 25.1042H47.3906L49.9541 18.4033H51.8257L54.3892 25.1042H53.0419H53.0436ZM51.9742 22.1876L50.8558 19.4011L49.7759 22.1876H51.9742Z" fill="#46B301"/>
<path id="Vector_9" d="M59.4777 19.9763C59.1404 19.6806 58.7385 19.5327 58.2702 19.5327C57.8997 19.5327 57.5695 19.6289 57.2759 19.8195C56.9823 20.012 56.7534 20.2756 56.5874 20.6124C56.4214 20.9491 56.3393 21.3286 56.3393 21.7527C56.3393 22.1767 56.4214 22.5473 56.5874 22.8822C56.7517 23.219 56.9823 23.4827 57.2759 23.6751C57.5695 23.8675 57.9015 23.9637 58.2702 23.9637C58.7385 23.9637 59.1404 23.8158 59.4777 23.5201C59.8132 23.2243 60.0351 22.8341 60.1417 22.3495H61.4785C61.3999 22.9143 61.2129 23.4167 60.9193 23.8533C60.6258 24.2898 60.2501 24.6301 59.7905 24.8724C59.3309 25.1147 58.8259 25.2358 58.272 25.2358C57.6586 25.2358 57.1046 25.0862 56.6084 24.7868C56.1138 24.4875 55.7259 24.0724 55.4446 23.5397C55.165 23.0087 55.0234 22.4119 55.0234 21.7527C55.0234 21.0934 55.1632 20.4984 55.4446 19.9656C55.7242 19.4347 56.1121 19.0178 56.6084 18.7131C57.1029 18.4102 57.6568 18.2588 58.272 18.2588C58.8259 18.2588 59.3327 18.3799 59.7905 18.6222C60.2501 18.8646 60.6258 19.2049 60.9193 19.6414C61.2129 20.0797 61.3999 20.5803 61.4785 21.1451H60.1417C60.0351 20.6605 59.815 20.2703 59.4777 19.9745V19.9763Z" fill="#46B301"/>
<path id="Vector_10" d="M67.7624 25.1042L67.1193 23.3885H64.07L63.4357 25.1042H62.1094L64.6729 18.4033H66.5444L69.1079 25.1042H67.7606H67.7624ZM66.6929 22.1876L65.5746 19.4011L64.4946 22.1876H66.6929Z" fill="#46B301"/>
<path id="Vector_11" d="M75.4239 18.4033V19.6042H72.9197V25.1042H71.6721V19.6042H69.168V18.4033H75.4239Z" fill="#46B301"/>
<path id="Vector_12" d="M76.8281 18.4033H78.0845V25.1042H76.8281V18.4033Z" fill="#46B301"/>
<path id="Vector_13" d="M81.1943 24.7868C80.6998 24.4875 80.3119 24.0724 80.0305 23.5397C79.7492 23.007 79.6094 22.4119 79.6094 21.7527C79.6094 21.0934 79.7492 20.4984 80.0305 19.9656C80.3101 19.4347 80.698 19.0178 81.1943 18.7131C81.6888 18.4102 82.2428 18.2588 82.8579 18.2588C83.473 18.2588 84.0252 18.4102 84.5215 18.7131C85.016 19.016 85.4039 19.4329 85.6853 19.9656C85.9649 20.4966 86.1064 21.0934 86.1064 21.7527C86.1064 22.4119 85.9666 23.007 85.6853 23.5397C85.4057 24.0706 85.0177 24.4875 84.5215 24.7868C84.0269 25.0862 83.473 25.2358 82.8579 25.2358C82.2428 25.2358 81.6906 25.0862 81.1943 24.7868ZM81.1751 22.884C81.3394 23.2208 81.57 23.4844 81.8636 23.6769C82.1572 23.8693 82.4892 23.9655 82.8579 23.9655C83.2266 23.9655 83.5604 23.8693 83.8574 23.6769C84.1545 23.4862 84.3869 23.2208 84.5547 22.884C84.7224 22.5473 84.808 22.1713 84.808 21.7544C84.808 21.3375 84.7242 20.9509 84.5547 20.6142C84.3869 20.2774 84.1545 20.0137 83.8574 19.8213C83.5604 19.6307 83.2266 19.5345 82.8579 19.5345C82.4892 19.5345 82.1572 19.6307 81.8636 19.8213C81.57 20.0137 81.3411 20.2774 81.1751 20.6142C81.0091 20.9509 80.927 21.3304 80.927 21.7544C80.927 22.1785 81.0091 22.5491 81.1751 22.884Z" fill="#46B301"/>
<path id="Vector_14" d="M88.897 20.4718V25.1042H87.6406V18.4033H88.759L92.6383 23.025V18.4033H93.8965V25.1042H92.7572L88.897 20.4718Z" fill="#46B301"/>
<path id="Vector_15" d="M99.5983 19.7287C99.3012 19.5576 98.908 19.4721 98.4205 19.4721C97.8928 19.4721 97.4909 19.5487 97.213 19.7037C96.9352 19.8587 96.7971 20.0814 96.7971 20.3701C96.7971 20.6195 96.9282 20.7995 97.1938 20.9099C97.4577 21.0204 97.8893 21.0756 98.4904 21.0756C99.5127 21.0756 100.257 21.2342 100.722 21.5495C101.187 21.8667 101.419 22.3673 101.419 23.0533C101.419 23.7392 101.164 24.3076 100.652 24.6782C100.14 25.0488 99.3973 25.2323 98.4205 25.2323C97.8264 25.2323 97.3039 25.1432 96.8513 24.965C96.3987 24.7868 96.0475 24.5356 95.7976 24.2131C95.5459 23.8907 95.4219 23.5165 95.4219 23.0925H96.6696C96.6696 23.3758 96.8321 23.602 97.1553 23.7731C97.4786 23.9441 97.9015 24.0314 98.4222 24.0314C98.9832 24.0314 99.4148 23.9477 99.7189 23.7784C100.023 23.6092 100.173 23.3669 100.173 23.0515C100.173 22.7825 100.03 22.5883 99.7433 22.4671C99.4567 22.346 98.9989 22.2854 98.3716 22.2854C97.3825 22.2854 96.6643 22.1339 96.2187 21.831C95.7731 21.5282 95.5512 21.04 95.5512 20.3683C95.5512 19.6966 95.7958 19.1585 96.2834 18.7986C96.7709 18.4387 97.4839 18.2588 98.4222 18.2588C98.9902 18.2588 99.4917 18.3479 99.9268 18.526C100.362 18.7042 100.699 18.9572 100.937 19.2833C101.174 19.6093 101.293 19.9852 101.293 20.4093H100.046C100.046 20.126 99.8971 19.8997 99.6 19.7287H99.5983Z" fill="#46B301"/>
</g>
</g>
<g id="Group_4">
<g id="Group_5">
<path id="Vector_16" d="M18.7383 0H33.6074L27.3812 15.6182C26.9408 16.7246 25.4048 16.7246 24.9627 15.6182L18.7383 0Z" fill="#0146B3"/>
<path id="Vector_17" d="M17.0027 19.5025C17.0027 21.2966 16.288 22.9179 15.1347 24.0992C13.9796 25.2733 12.3842 26.002 10.6245 26.002H0V11.9321C2.52507 12.0818 4.86141 12.4577 7.01253 13.0011C10.7049 13.9276 13.8486 15.3405 16.468 16.8959C16.8122 17.6941 17.0045 18.5742 17.0045 19.5007L17.0027 19.5025Z" fill="#0146B3"/>
<path id="Vector_18" d="M17.0045 6.50134C17.0045 8.29548 16.2898 9.92037 15.1382 11.0963C14.8044 11.4366 14.4305 11.7395 14.0303 11.9942C10.4008 11.0785 5.7963 10.5921 0 10.9769V0H10.6263C14.1474 0 17.0027 2.91126 17.0027 6.50134H17.0045Z" fill="#0146B3"/>
</g>
<path id="Vector_19" d="M26.1735 26.002C27.7881 26.002 29.097 24.6675 29.097 23.0213C29.097 21.3751 27.7881 20.0405 26.1735 20.0405C24.5589 20.0405 23.25 21.3751 23.25 23.0213C23.25 24.6675 24.5589 26.002 26.1735 26.002Z" fill="#46B301"/>
</g>
</g>
<defs>
<clipPath id="clip0_251_152">
<rect width="130" height="26" fill="white"/>
</clipPath>
</defs>
</svg>
