<svg width="19" height="13" viewBox="0 0 19 13" fill="none" xmlns="http://www.w3.org/2000/svg">
<path id="menu" d="M1.35938 12.0938C1.07604 12.0938 0.838542 11.9979 0.646875 11.8063C0.455208 11.6146 0.359375 11.3771 0.359375 11.0938C0.359375 10.8104 0.455208 10.5729 0.646875 10.3813C0.838542 10.1896 1.07604 10.0938 1.35938 10.0938H17.3594C17.6427 10.0938 17.8802 10.1896 18.0719 10.3813C18.2635 10.5729 18.3594 10.8104 18.3594 11.0938C18.3594 11.3771 18.2635 11.6146 18.0719 11.8063C17.8802 11.9979 17.6427 12.0938 17.3594 12.0938H1.35938ZM1.35938 7.09375C1.07604 7.09375 0.838542 6.99792 0.646875 6.80625C0.455208 6.61458 0.359375 6.37708 0.359375 6.09375C0.359375 5.81042 0.455208 5.57292 0.646875 5.38125C0.838542 5.18958 1.07604 5.09375 1.35938 5.09375H17.3594C17.6427 5.09375 17.8802 5.18958 18.0719 5.38125C18.2635 5.57292 18.3594 5.81042 18.3594 6.09375C18.3594 6.37708 18.2635 6.61458 18.0719 6.80625C17.8802 6.99792 17.6427 7.09375 17.3594 7.09375H1.35938ZM1.35938 2.09375C1.07604 2.09375 0.838542 1.99792 0.646875 1.80625C0.455208 1.61458 0.359375 1.37708 0.359375 1.09375C0.359375 0.810417 0.455208 0.572917 0.646875 0.38125C0.838542 0.189583 1.07604 0.09375 1.35938 0.09375H17.3594C17.6427 0.09375 17.8802 0.189583 18.0719 0.38125C18.2635 0.572917 18.3594 0.810417 18.3594 1.09375C18.3594 1.37708 18.2635 1.61458 18.0719 1.80625C17.8802 1.99792 17.6427 2.09375 17.3594 2.09375H1.35938Z" fill="#0146B3"/>
</svg>
