<svg width="64" height="64" viewBox="0 0 64 64" fill="none" xmlns="http://www.w3.org/2000/svg">
<rect width="64" height="64" rx="8" transform="matrix(-1 0 0 1 64 0)" fill="white"/>
<mask id="mask0_2368_207" style="mask-type:alpha" maskUnits="userSpaceOnUse" x="7" y="7" width="50" height="50">
<rect x="7.42969" y="7.42383" width="49.1495" height="49.1495" fill="#D9D9D9"/>
</mask>
<g mask="url(#mask0_2368_207)">
<path d="M19.2058 40.702V28.4146C19.2058 27.9794 19.3531 27.6145 19.6477 27.32C19.9422 27.0258 20.3071 26.8787 20.7423 26.8787C21.1778 26.8787 21.5427 27.0258 21.8369 27.32C22.1307 27.6145 22.2777 27.9794 22.2777 28.4146V40.702C22.2777 41.1371 22.1304 41.502 21.8358 41.7966C21.5413 42.0908 21.1764 42.2379 20.7412 42.2379C20.3057 42.2379 19.941 42.0908 19.6472 41.7966C19.3529 41.502 19.2058 41.1371 19.2058 40.702ZM30.4693 40.702V28.4146C30.4693 27.9794 30.6165 27.6145 30.9111 27.32C31.2057 27.0258 31.5705 26.8787 32.0057 26.8787C32.4412 26.8787 32.8059 27.0258 33.0998 27.32C33.394 27.6145 33.5411 27.9794 33.5411 28.4146V40.702C33.5411 41.1371 33.3938 41.502 33.0993 41.7966C32.8047 42.0908 32.4399 42.2379 32.0047 42.2379C31.5692 42.2379 31.2045 42.0908 30.9106 41.7966C30.6164 41.502 30.4693 41.1371 30.4693 40.702ZM14.6375 49.4055C14.2023 49.4055 13.8376 49.2583 13.5434 48.9637C13.2488 48.6691 13.1016 48.3043 13.1016 47.8691C13.1016 47.4336 13.2488 47.0689 13.5434 46.775C13.8376 46.4808 14.2023 46.3337 14.6375 46.3337H49.3729C49.8081 46.3337 50.1728 46.481 50.467 46.7755C50.7615 47.0701 50.9088 47.4349 50.9088 47.8701C50.9088 48.3056 50.7615 48.6703 50.467 48.9642C50.1728 49.2584 49.8081 49.4055 49.3729 49.4055H14.6375ZM41.7327 40.702V28.4146C41.7327 27.9794 41.88 27.6145 42.1745 27.32C42.4691 27.0258 42.834 26.8787 43.2691 26.8787C43.7047 26.8787 44.0694 27.0258 44.3632 27.32C44.6574 27.6145 44.8046 27.9794 44.8046 28.4146V40.702C44.8046 41.1371 44.6573 41.502 44.3627 41.7966C44.0682 42.0908 43.7033 42.2379 43.2681 42.2379C42.8326 42.2379 42.4677 42.0908 42.1735 41.7966C41.8796 41.502 41.7327 41.1371 41.7327 40.702ZM49.4517 22.7829H14.4132C14.0487 22.7829 13.739 22.6556 13.484 22.4009C13.229 22.1466 13.1016 21.8376 13.1016 21.4737V20.674C13.1016 20.4075 13.1683 20.1776 13.3017 19.9844C13.4355 19.7916 13.6117 19.6347 13.8301 19.5139L30.3787 11.417C30.8899 11.1703 31.4313 11.0469 32.0026 11.0469C32.574 11.0469 33.117 11.1703 33.6317 11.417L50.0973 19.4627C50.3547 19.5941 50.5542 19.7779 50.6958 20.0141C50.8378 20.2506 50.9088 20.5046 50.9088 20.7759V21.3309C50.9088 21.75 50.7716 22.0968 50.4972 22.3712C50.2228 22.6457 49.8743 22.7829 49.4517 22.7829ZM20.3634 19.711H43.647L32.2812 14.1976C32.189 14.158 32.097 14.1382 32.0052 14.1382C31.9134 14.1382 31.8214 14.158 31.7292 14.1976L20.3634 19.711Z" fill="#0146B3"/>
</g>
</svg>
