<svg width="64" height="64" viewBox="0 0 64 64" fill="none" xmlns="http://www.w3.org/2000/svg">
<rect width="64" height="64" rx="8" transform="matrix(-1 0 0 1 64 0)" fill="white"/>
<mask id="mask0_2368_212" style="mask-type:alpha" maskUnits="userSpaceOnUse" x="7" y="7" width="50" height="50">
<rect x="7.42969" y="7.42383" width="49.1495" height="49.1495" fill="#D9D9D9"/>
</mask>
<g mask="url(#mask0_2368_212)">
<path d="M32.0056 36.202L35.3846 38.2811C35.6812 38.4675 35.9844 38.4524 36.2944 38.2361C36.6043 38.0193 36.7212 37.7285 36.6451 37.3636L35.7389 33.5003L38.7477 30.9128C39.0365 30.6581 39.1193 30.3634 38.9961 30.0286C38.8725 29.6938 38.6244 29.5093 38.2516 29.4751L34.3253 29.1168L32.7694 25.5094C32.625 25.1787 32.3704 25.0133 32.0056 25.0133C31.6407 25.0133 31.3861 25.1787 31.2417 25.5094L29.6858 29.1168L25.7595 29.4751C25.3867 29.5093 25.1386 29.6938 25.0151 30.0286C24.8918 30.3634 24.9746 30.6581 25.2634 30.9128L28.2722 33.5003L27.366 37.3636C27.2899 37.7285 27.4068 38.0193 27.7167 38.2361C28.0267 38.4524 28.3299 38.4675 28.6265 38.2811L32.0056 36.202ZM26.0114 46.335H20.9786C20.0622 46.335 19.2816 46.0128 18.6369 45.3684C17.9925 44.7236 17.6703 43.943 17.6703 43.0266V37.9939L14.0035 34.3154C13.6806 33.9846 13.4431 33.6177 13.2908 33.2146C13.1386 32.8115 13.0625 32.4065 13.0625 31.9997C13.0625 31.5928 13.1386 31.1879 13.2908 30.7848C13.4431 30.3817 13.6806 30.0148 14.0035 29.684L17.6703 26.0055V20.9728C17.6703 20.0564 17.9925 19.2758 18.6369 18.631C19.2816 17.9866 20.0622 17.6644 20.9786 17.6644H26.0114L29.6899 13.9976C30.0206 13.6748 30.3875 13.4372 30.7906 13.285C31.1937 13.1328 31.5987 13.0566 32.0056 13.0566C32.4124 13.0566 32.8174 13.1328 33.2205 13.285C33.6236 13.4372 33.9905 13.6748 34.3212 13.9976L37.9998 17.6644H43.0325C43.9489 17.6644 44.7295 17.9866 45.3742 18.631C46.0186 19.2758 46.3408 20.0564 46.3408 20.9728V26.0055L50.0076 29.684C50.3305 30.0148 50.568 30.3817 50.7203 30.7848C50.8725 31.1879 50.9486 31.5928 50.9486 31.9997C50.9486 32.4065 50.8725 32.8115 50.7203 33.2146C50.568 33.6177 50.3305 33.9846 50.0076 34.3154L46.3408 37.9939V43.0266C46.3408 43.943 46.0186 44.7236 45.3742 45.3684C44.7295 46.0128 43.9489 46.335 43.0325 46.335H37.9998L34.3212 50.0017C33.9905 50.3246 33.6236 50.5622 33.2205 50.7144C32.8174 50.8666 32.4124 50.9427 32.0056 50.9427C31.5987 50.9427 31.1937 50.8666 30.7906 50.7144C30.3875 50.5622 30.0206 50.3246 29.6899 50.0017L26.0114 46.335ZM26.8858 44.2871L31.0999 48.5011C31.3361 48.7373 31.638 48.8554 32.0056 48.8554C32.3732 48.8554 32.675 48.7373 32.9112 48.5011L37.1253 44.2871H43.0325C43.4001 44.2871 43.7021 44.169 43.9387 43.9328C44.1748 43.6963 44.2929 43.3942 44.2929 43.0266V37.1194L48.507 32.9054C48.7432 32.6692 48.8613 32.3673 48.8613 31.9997C48.8613 31.6321 48.7432 31.3302 48.507 31.094L44.2929 26.8799V20.9728C44.2929 20.6052 44.1748 20.3031 43.9387 20.0666C43.7021 19.8304 43.4001 19.7123 43.0325 19.7123H37.1253L32.9112 15.4982C32.675 15.2621 32.3732 15.144 32.0056 15.144C31.638 15.144 31.3361 15.2621 31.0999 15.4982L26.8858 19.7123H20.9786C20.6111 19.7123 20.309 19.8304 20.0725 20.0666C19.8363 20.3031 19.7182 20.6052 19.7182 20.9728V26.8799L15.5041 31.094C15.2679 31.3302 15.1498 31.6321 15.1498 31.9997C15.1498 32.3673 15.2679 32.6692 15.5041 32.9054L19.7182 37.1194V43.0266C19.7182 43.3942 19.8363 43.6963 20.0725 43.9328C20.309 44.169 20.6111 44.2871 20.9786 44.2871H26.8858Z" fill="#0146B3"/>
</g>
</svg>
