<svg width="64" height="64" viewBox="0 0 64 64" fill="none" xmlns="http://www.w3.org/2000/svg">
<rect width="64" height="64" rx="8" transform="matrix(-1 0 0 1 64 0)" fill="white"/>
<mask id="mask0_2368_210" style="mask-type:alpha" maskUnits="userSpaceOnUse" x="7" y="7" width="50" height="50">
<rect x="7.42969" y="7.42383" width="49.1495" height="49.1495" fill="#D9D9D9"/>
</mask>
<g mask="url(#mask0_2368_210)">
<path d="M25.1297 40.0319L34.6642 37.1413C35.268 36.9498 35.7845 36.6394 36.2139 36.21C36.6433 35.7806 36.9537 35.2641 37.1452 34.6603L40.0399 25.1217C40.1396 24.7752 40.0563 24.4701 39.7901 24.2063C39.5238 23.9424 39.2185 23.8617 38.8741 23.9641L29.3396 26.8547C28.7358 27.0462 28.2193 27.3566 27.7899 27.786C27.3605 28.2154 27.0501 28.7319 26.8586 29.3357L23.9639 38.8743C23.8642 39.2208 23.9475 39.5259 24.2137 39.7897C24.48 40.0536 24.7853 40.1343 25.1297 40.0319ZM31.9973 34.6761C31.2522 34.6761 30.6204 34.4152 30.102 33.8933C29.5832 33.3718 29.3238 32.7385 29.3238 31.9934C29.3238 31.2483 29.5847 30.6165 30.1066 30.0981C30.6281 29.5793 31.2614 29.3199 32.0065 29.3199C32.7516 29.3199 33.3834 29.5808 33.9018 30.1027C34.4206 30.6242 34.68 31.2575 34.68 32.0026C34.68 32.7477 34.4191 33.3795 33.8972 33.8979C33.3757 34.4167 32.7424 34.6761 31.9973 34.6761ZM32.0055 51.453C29.3145 51.453 26.7852 50.9424 24.4175 49.9212C22.0498 48.9 19.9903 47.5141 18.239 45.7635C16.4877 44.0128 15.1011 41.9542 14.0792 39.5875C13.0577 37.2208 12.5469 34.6922 12.5469 32.0016C12.5469 29.3106 13.0575 26.7813 14.0787 24.4136C15.0999 22.0459 16.4858 19.9864 18.2364 18.2351C19.9871 16.4838 22.0457 15.0972 24.4124 14.0753C26.7791 13.0537 29.3077 12.543 31.9983 12.543C34.6893 12.543 37.2186 13.0536 39.5863 14.0748C41.954 15.096 44.0135 16.4819 45.7648 18.2325C47.5161 19.9832 48.9027 22.0418 49.9246 24.4085C50.9462 26.7752 51.4569 29.3038 51.4569 31.9944C51.4569 34.6853 50.9463 37.2147 49.9251 39.5824C48.9039 41.9501 47.518 44.0096 45.7674 45.7609C44.0167 47.5122 41.9581 48.8988 39.5914 49.9207C37.2247 50.9422 34.6961 51.453 32.0055 51.453ZM32.0019 48.3812C36.5544 48.3812 40.423 46.7888 43.6079 43.6039C46.7927 40.4191 48.3851 36.5505 48.3851 31.998C48.3851 27.4455 46.7927 23.5769 43.6079 20.392C40.423 17.2072 36.5544 15.6148 32.0019 15.6148C27.4494 15.6148 23.5808 17.2072 20.396 20.392C17.2111 23.5769 15.6187 27.4455 15.6187 31.998C15.6187 36.5505 17.2111 40.4191 20.396 43.6039C23.5808 46.7888 27.4494 48.3812 32.0019 48.3812Z" fill="#0146B3"/>
</g>
</svg>
