<svg width="64" height="64" viewBox="0 0 64 64" fill="none" xmlns="http://www.w3.org/2000/svg">
<rect width="64" height="64" rx="8" transform="matrix(-1 0 0 1 64 0)" fill="white"/>
<mask id="mask0_2368_206" style="mask-type:alpha" maskUnits="userSpaceOnUse" x="7" y="7" width="50" height="50">
<rect x="7.42969" y="7.42383" width="49.1495" height="49.1495" fill="#D9D9D9"/>
</mask>
<g mask="url(#mask0_2368_206)">
<path d="M20.9716 49.8444L22.7 45.9569C22.1699 45.5685 21.66 45.1755 21.1702 44.7779C20.6804 44.3799 20.2111 43.9433 19.7623 43.4682C19.5155 43.5706 19.2674 43.6474 19.0179 43.6986C18.7684 43.7498 18.5098 43.7754 18.2422 43.7754C17.1947 43.7754 16.296 43.4006 15.5462 42.6511C14.7966 41.9016 14.4219 41.0029 14.4219 39.9551C14.4219 39.3383 14.5572 38.7647 14.8279 38.2343C15.0982 37.7039 15.4695 37.2641 15.9419 36.915C15.6689 36.1299 15.4747 35.3364 15.3593 34.5343C15.2439 33.7322 15.1863 32.8874 15.1863 32C15.1863 31.1126 15.2439 30.2678 15.3593 29.4657C15.4747 28.6636 15.6689 27.8701 15.9419 27.085C15.4695 26.7359 15.0982 26.2961 14.8279 25.7657C14.5572 25.2353 14.4219 24.6617 14.4219 24.0449C14.4219 22.9971 14.7966 22.0984 15.5462 21.3489C16.296 20.5994 17.1947 20.2246 18.2422 20.2246C18.5098 20.2246 18.7684 20.2502 19.0179 20.3014C19.2674 20.3526 19.5155 20.4294 19.7623 20.5318C20.8886 19.303 22.1706 18.2758 23.6082 17.4502C25.0455 16.6246 26.5833 16.0134 28.2216 15.6168C28.366 14.6717 28.8026 13.8775 29.5313 13.2341C30.2596 12.5911 31.0965 12.2695 32.042 12.2695C32.9871 12.2695 33.8238 12.5899 34.5522 13.2305C35.2809 13.8708 35.7174 14.6531 35.8618 15.5774C37.5264 15.974 39.0774 16.5798 40.5147 17.3949C41.9523 18.2103 43.2343 19.2218 44.3606 20.4294C44.6074 20.327 44.8437 20.2568 45.0697 20.219C45.2953 20.1807 45.5315 20.1616 45.7783 20.1616C46.8258 20.1616 47.7244 20.5364 48.4743 21.2859C49.2239 22.0354 49.5986 22.9341 49.5986 23.982C49.5986 24.5987 49.4686 25.1617 49.2085 25.671C48.9487 26.1806 48.5931 26.6099 48.1415 26.9591C48.4146 27.7649 48.6088 28.5848 48.7242 29.4186C48.8399 30.2521 48.8977 31.1126 48.8977 32C48.8977 32.8874 48.8399 33.7492 48.7242 34.5855C48.6088 35.4217 48.4146 36.2323 48.1415 37.0174C48.5798 37.3665 48.9257 37.7892 49.1793 38.2855C49.4326 38.7818 49.5592 39.3383 49.5592 39.9551C49.5592 41.0029 49.1844 41.9016 48.4349 42.6511C47.6854 43.4006 46.7867 43.7754 45.7388 43.7754C45.4921 43.7754 45.2559 43.7531 45.0303 43.7083C44.8043 43.6636 44.568 43.5967 44.3212 43.5077C43.8724 43.9828 43.4148 44.4297 42.9486 44.8485C42.4827 45.2673 41.961 45.6709 41.3835 46.0593L43.0295 49.8756C43.237 50.3248 43.2042 50.7463 42.9312 51.1402C42.6581 51.5337 42.2799 51.7305 41.7966 51.7305C41.5133 51.7305 41.2647 51.6544 41.0507 51.5021C40.8367 51.3499 40.6746 51.153 40.5643 50.9113L39.0202 47.3434C38.4898 47.5877 37.97 47.7965 37.4607 47.9695C36.9515 48.1429 36.4185 48.2939 35.8618 48.4226C35.7174 49.3469 35.2809 50.1292 34.5522 50.7695C33.8238 51.4101 32.9871 51.7305 32.042 51.7305C31.0965 51.7305 30.2596 51.409 29.5313 50.7659C28.8026 50.1225 28.366 49.3283 28.2216 48.3832C27.6441 48.2545 27.0955 48.1035 26.5756 47.9301C26.0558 47.757 25.5307 47.5483 25.0003 47.3039L23.4168 50.9431C23.3065 51.1847 23.1393 51.3764 22.915 51.518C22.6904 51.6596 22.4469 51.7305 22.1844 51.7305C21.7011 51.7305 21.3264 51.5284 21.0601 51.1243C20.7936 50.7198 20.764 50.2932 20.9716 49.8444ZM23.5903 43.8072L27.1977 35.7333C26.7854 35.2108 26.4657 34.6333 26.2388 34.0008C26.0118 33.368 25.8983 32.7011 25.8983 32C25.8983 30.3303 26.5046 28.8889 27.7173 27.6759C28.9304 26.4628 30.3719 25.8563 32.042 25.8563C33.7117 25.8563 35.1531 26.4628 36.3661 27.6759C37.5788 28.8889 38.1852 30.3303 38.1852 32C38.1852 32.7011 38.0599 33.3816 37.8094 34.0418C37.5585 34.7022 37.2165 35.3002 36.7834 35.8357L40.3908 43.8466C40.7768 43.5602 41.1476 43.2733 41.5033 42.9859C41.8593 42.6982 42.1999 42.368 42.5252 41.9953C42.3023 41.7093 42.1455 41.391 42.0547 41.0404C41.9642 40.6899 41.919 40.3281 41.919 39.9551C41.919 38.8628 42.324 37.9408 43.1339 37.1889C43.9439 36.4366 44.8753 36.0985 45.9283 36.1746C46.1331 35.492 46.2931 34.8113 46.4085 34.1324C46.5242 33.4538 46.5821 32.743 46.5821 32C46.5821 31.257 46.5242 30.5356 46.4085 29.8359C46.2931 29.1362 46.1331 28.445 45.9283 27.7624C44.8753 27.8385 43.9503 27.5004 43.1534 26.7482C42.3567 25.9962 41.9584 25.0742 41.9584 23.982C41.9584 23.6352 42.0175 23.2971 42.1356 22.9677C42.2537 22.638 42.3967 22.3302 42.5646 22.0441C41.5748 21.0147 40.4728 20.1555 39.2588 19.4664C38.0444 18.7772 36.752 18.245 35.3816 17.8695C35.0717 18.489 34.6234 18.9839 34.0366 19.3542C33.4496 19.7246 32.7847 19.9097 32.042 19.9097C31.2989 19.9097 30.6339 19.7246 30.0468 19.3542C29.4601 18.9839 29.0118 18.489 28.7019 17.8695C27.2895 18.245 25.9761 18.7825 24.7617 19.4822C23.5476 20.1819 22.4457 21.0569 21.4559 22.1071C21.6238 22.3931 21.7668 22.701 21.8849 23.0307C22.003 23.3601 22.0621 23.6982 22.0621 24.0449C22.0621 25.1501 21.6677 26.0671 20.8789 26.7958C20.0898 27.5241 19.1689 27.8673 18.1163 27.8254C17.9115 28.508 17.7579 29.1887 17.6555 29.8676C17.5531 30.5462 17.5019 31.257 17.5019 32C17.5019 32.743 17.5531 33.4538 17.6555 34.1324C17.7579 34.8113 17.9115 35.492 18.1163 36.1746C19.1426 36.0985 20.0568 36.4332 20.8589 37.1786C21.661 37.9244 22.0621 38.8499 22.0621 39.9551C22.0621 40.3281 22.0168 40.6728 21.9264 40.9892C21.8356 41.3056 21.6788 41.6069 21.4559 41.8929C21.7812 42.2656 22.1218 42.5997 22.4778 42.8953C22.8334 43.1906 23.2043 43.4945 23.5903 43.8072ZM25.9531 45.1536C26.3811 45.3639 26.8241 45.547 27.2822 45.703C27.7405 45.8593 28.2138 46.0018 28.7019 46.1305C29.0118 45.511 29.4601 45.0161 30.0468 44.6458C30.6339 44.2754 31.2989 44.0903 32.042 44.0903C32.7847 44.0903 33.4496 44.2754 34.0366 44.6458C34.6234 45.0161 35.0717 45.511 35.3816 46.1305C35.8567 46.0018 36.3095 45.866 36.7399 45.723C37.1706 45.58 37.6 45.4033 38.028 45.1931L34.6254 37.5529C34.2288 37.7365 33.8185 37.8809 33.3946 37.986C32.9707 38.0911 32.5198 38.1437 32.042 38.1437C31.543 38.1437 31.0696 38.0858 30.6218 37.9701C30.1743 37.8548 29.7523 37.6816 29.3557 37.4505L25.9531 45.1536ZM32.042 35.0718C32.8611 35.0718 33.5779 34.7817 34.1923 34.2015C34.8066 33.6213 35.1138 32.8874 35.1138 32C35.1138 31.1808 34.8066 30.4641 34.1923 29.8497C33.5779 29.2353 32.8611 28.9282 32.042 28.9282C31.1546 28.9282 30.4207 29.2353 29.8405 29.8497C29.2603 30.4641 28.9701 31.1808 28.9701 32C28.9701 32.8874 29.2603 33.6213 29.8405 34.2015C30.4207 34.7817 31.1546 35.0718 32.042 35.0718Z" fill="#0146B3"/>
</g>
</svg>
