<svg width="64" height="64" viewBox="0 0 64 64" fill="none" xmlns="http://www.w3.org/2000/svg">
<rect width="64" height="64" rx="8" transform="matrix(-1 0 0 1 64 0)" fill="white"/>
<mask id="mask0_2368_205" style="mask-type:alpha" maskUnits="userSpaceOnUse" x="7" y="7" width="50" height="50">
<rect x="7.42969" y="7.42383" width="49.1495" height="49.1495" fill="#D9D9D9"/>
</mask>
<g mask="url(#mask0_2368_205)">
<path d="M10.2256 43.8522C9.7235 43.8522 9.30249 43.6824 8.96254 43.3428C8.62293 43.0028 8.45312 42.5818 8.45312 42.0797V41.3553C8.45312 39.9927 9.1646 38.8736 10.5875 37.9977C12.0108 37.1223 13.8659 36.6845 16.1527 36.6845C16.5305 36.6845 16.9111 36.6963 17.2944 36.7199C17.6777 36.7434 18.0637 36.7893 18.4525 36.8576C18.0535 37.4958 17.7574 38.1582 17.5642 38.8446C17.3714 39.5313 17.275 40.2356 17.275 40.9575V43.8522H10.2256ZM22.5995 43.8522C22.0664 43.8522 21.6233 43.6747 21.2704 43.3197C20.9171 42.9651 20.7405 42.5255 20.7405 42.0009V41.0363C20.7405 40.0776 21.0096 39.2012 21.5479 38.4073C22.0861 37.6131 22.862 36.9207 23.8753 36.3302C24.8887 35.7394 26.086 35.2964 27.4673 35.0012C28.8483 34.7056 30.3579 34.5578 31.9963 34.5578C33.666 34.5578 35.1913 34.7056 36.5723 35.0012C37.9533 35.2964 39.1504 35.7394 40.1638 36.3302C41.1775 36.9207 41.9482 37.6131 42.4759 38.4073C43.0035 39.2012 43.2674 40.0776 43.2674 41.0363V42.0009C43.2674 42.5255 43.0899 42.9651 42.7349 43.3197C42.3803 43.6747 41.9407 43.8522 41.4161 43.8522H22.5995ZM46.7329 43.8522V40.96C46.7329 40.189 46.6418 39.4635 46.4595 38.7836C46.2769 38.1037 46.0032 37.4617 45.6383 36.8576C46.0401 36.7893 46.424 36.7434 46.7903 36.7199C47.1565 36.6963 47.5181 36.6845 47.8752 36.6845C50.162 36.6845 52.0136 37.1172 53.4301 37.9824C54.8465 38.8473 55.5548 39.9716 55.5548 41.3553V42.0797C55.5548 42.5818 55.385 43.0028 55.0454 43.3428C54.7054 43.6824 54.2844 43.8522 53.7823 43.8522H46.7329ZM23.97 40.7803H40.0696V40.5638C39.8597 39.7368 38.988 39.041 37.4544 38.4764C35.9212 37.9119 34.1044 37.6296 32.0039 37.6296C29.9035 37.6296 28.0867 37.9119 26.5535 38.4764C25.0199 39.041 24.1588 39.7368 23.97 40.5638V40.7803ZM16.1471 34.6955C15.1818 34.6955 14.3572 34.3523 13.6732 33.6659C12.9892 32.9795 12.6472 32.1544 12.6472 31.1905C12.6472 30.214 12.9906 29.3891 13.6773 28.7157C14.3637 28.0422 15.1888 27.7055 16.1527 27.7055C17.1292 27.7055 17.9574 28.0422 18.6373 28.7157C19.3176 29.3891 19.6577 30.2161 19.6577 31.1967C19.6577 32.1483 19.3211 32.9693 18.6481 33.6598C17.9753 34.3503 17.1417 34.6955 16.1471 34.6955ZM47.8752 34.6955C46.9195 34.6955 46.0964 34.3503 45.4059 33.6598C44.7154 32.9693 44.3702 32.1483 44.3702 31.1967C44.3702 30.2161 44.7154 29.3891 45.4059 28.7157C46.0964 28.0422 46.9207 27.7055 47.8787 27.7055C48.8662 27.7055 49.6966 28.0422 50.37 28.7157C51.0434 29.3891 51.3801 30.214 51.3801 31.1905C51.3801 32.1544 51.0443 32.9795 50.3726 33.6659C49.7009 34.3523 48.8684 34.6955 47.8752 34.6955ZM32.0111 33.0219C30.5359 33.0219 29.2799 32.5049 28.243 31.4711C27.2061 30.4376 26.6876 29.1824 26.6876 27.7055C26.6876 26.199 27.2044 24.9363 28.2379 23.9174C29.2717 22.8983 30.5271 22.3887 32.0039 22.3887C33.5102 22.3887 34.7729 22.8976 35.792 23.9154C36.8109 24.9328 37.3203 26.1938 37.3203 27.6984C37.3203 29.1732 36.8116 30.4292 35.7941 31.4665C34.7763 32.5034 33.5153 33.0219 32.0111 33.0219ZM32.0137 29.95C32.64 29.95 33.169 29.7309 33.6008 29.2926C34.0329 28.8541 34.249 28.3216 34.249 27.6953C34.249 27.0693 34.0338 26.5403 33.6034 26.1082C33.173 25.6764 32.6398 25.4605 32.0039 25.4605C31.3845 25.4605 30.8554 25.6757 30.4168 26.1061C29.9782 26.5362 29.7589 27.0693 29.7589 27.7055C29.7589 28.325 29.9782 28.8541 30.4168 29.2926C30.8554 29.7309 31.3877 29.95 32.0137 29.95Z" fill="#0146B3"/>
</g>
</svg>
