<svg width="64" height="64" viewBox="0 0 64 64" fill="none" xmlns="http://www.w3.org/2000/svg">
<rect width="64" height="64" rx="8" transform="matrix(-1 0 0 1 64 0)" fill="white"/>
<mask id="mask0_2368_211" style="mask-type:alpha" maskUnits="userSpaceOnUse" x="7" y="7" width="50" height="50">
<rect x="7.42969" y="7.42383" width="49.1495" height="49.1495" fill="#D9D9D9"/>
</mask>
<g mask="url(#mask0_2368_211)">
<path d="M46.2578 48.4257L35.707 37.9143C35.4104 37.6307 35.2621 37.2742 35.2621 36.8448C35.2621 36.4158 35.4104 36.0528 35.707 35.7559C36.0036 35.4592 36.3634 35.3109 36.7863 35.3109C37.2088 35.3109 37.5684 35.4592 37.865 35.7559L48.3963 46.2872C48.6796 46.5705 48.8213 46.93 48.8213 47.3659C48.8213 47.8018 48.673 48.1615 48.3764 48.4451C48.0927 48.7288 47.7396 48.8673 47.3171 48.8609C46.8945 48.854 46.5414 48.709 46.2578 48.4257ZM17.4101 44.5818C16.4568 42.9803 15.744 41.3118 15.2716 39.5762C14.7989 37.8406 14.5625 36.0723 14.5625 34.2711C14.5625 31.7273 15.0345 29.2548 15.9786 26.8536C16.9224 24.4525 18.3656 22.2872 20.3084 20.3577C22.2515 18.4146 24.4288 16.9659 26.8402 16.0116C29.2516 15.0572 31.7162 14.5801 34.2341 14.5801C36.0482 14.5801 37.8198 14.8216 39.5489 15.3045C41.2777 15.7878 42.9324 16.506 44.513 17.4589C45.3479 17.9842 45.7994 18.7337 45.8677 19.7075C45.9359 20.6816 45.5972 21.5416 44.8514 22.2873L22.238 44.9007C21.4926 45.6462 20.6275 45.9882 19.6428 45.9267C18.6585 45.865 17.9142 45.4166 17.4101 44.5818ZM19.97 42.7899L23.2072 39.5527C22.6611 38.8096 22.1307 38.0364 21.616 37.2329C21.1013 36.4294 20.6391 35.5997 20.2295 34.7437C19.82 33.888 19.4781 33.0026 19.2041 32.0876C18.9296 31.1725 18.7254 30.245 18.5912 29.305C17.7826 31.5553 17.5077 33.8545 17.7664 36.2028C18.0248 38.5514 18.7593 40.7471 19.97 42.7899ZM25.4676 37.3947L37.3454 25.414C35.8777 24.2876 34.3916 23.3877 32.8871 22.7143C31.3829 22.0409 29.9659 21.5861 28.6362 21.3499C27.3061 21.1137 26.1041 21.0941 25.0303 21.291C23.9565 21.488 23.1231 21.8831 22.5298 22.4763C21.9363 23.0906 21.5411 23.9347 21.3441 25.0085C21.1472 26.0823 21.1636 27.2893 21.3933 28.6297C21.623 29.97 22.0745 31.3904 22.7479 32.8908C23.4217 34.3916 24.3282 35.8929 25.4676 37.3947ZM42.8435 20.0188C40.7454 18.7689 38.5188 18.0194 36.1637 17.7702C33.8086 17.5207 31.5061 17.7977 29.2562 18.6011C30.2303 18.722 31.1749 18.9261 32.0899 19.2134C33.0047 19.5008 33.89 19.8442 34.7461 20.2435C35.6021 20.6425 36.4298 21.0992 37.2291 21.6136C38.0285 22.1283 38.7997 22.6758 39.5428 23.256L42.8435 20.0188Z" fill="#0146B3"/>
</g>
</svg>
