<svg width="64" height="64" viewBox="0 0 64 64" fill="none" xmlns="http://www.w3.org/2000/svg">
<rect width="64" height="64" rx="8" transform="matrix(-1 0 0 1 64 0)" fill="white"/>
<mask id="mask0_2368_208" style="mask-type:alpha" maskUnits="userSpaceOnUse" x="7" y="7" width="50" height="50">
<rect x="7.42969" y="7.42383" width="49.1495" height="49.1495" fill="#D9D9D9"/>
</mask>
<g mask="url(#mask0_2368_208)">
<path d="M12.0391 48.8944V31.9993C12.0391 31.5641 12.1863 31.1994 12.4809 30.9052C12.7755 30.6106 13.1403 30.4634 13.5755 30.4634C14.011 30.4634 14.3757 30.6106 14.6696 30.9052C14.9638 31.1994 15.1109 31.5641 15.1109 31.9993V34.5591H20.0929L26.3231 13.903V11.5203C26.3231 11.0851 26.4704 10.7204 26.765 10.4262C27.0595 10.1317 27.4244 9.98438 27.8596 9.98438C28.2951 9.98438 28.6598 10.1317 28.9537 10.4262C29.2479 10.7204 29.395 11.0851 29.395 11.5203V14.0802H34.5659V11.5203C34.5659 11.0851 34.7132 10.7204 35.0078 10.4262C35.3023 10.1317 35.6672 9.98438 36.1024 9.98438C36.5379 9.98438 36.9026 10.1317 37.1965 10.4262C37.4907 10.7204 37.6378 11.0851 37.6378 11.5203V13.647L43.9192 34.5591H48.9012V31.9993C48.9012 31.5641 49.0485 31.1994 49.3431 30.9052C49.6376 30.6106 50.0025 30.4634 50.4377 30.4634C50.8732 30.4634 51.2379 30.6106 51.5317 30.9052C51.826 31.1994 51.9731 31.5641 51.9731 31.9993V48.8944C51.9731 49.732 51.6705 50.4534 51.0653 51.0586C50.4602 51.6637 49.7388 51.9663 48.9012 51.9663H36.4167C35.8925 51.9663 35.4528 51.789 35.0979 51.4343C34.7433 51.0794 34.5659 50.6398 34.5659 50.1155V41.7268H29.4462V50.1155C29.4462 50.6398 29.2689 51.0794 28.9142 51.4343C28.5593 51.789 28.1197 51.9663 27.5954 51.9663H15.1109C14.2733 51.9663 13.5519 51.6637 12.9468 51.0586C12.3416 50.4534 12.0391 49.732 12.0391 48.8944ZM24.5589 30.4634H39.4532L37.9096 25.3436H26.1025L24.5589 30.4634ZM27.0164 22.2718H36.9958L35.4522 17.152H28.56L27.0164 22.2718ZM15.1109 48.8944H26.3743V41.7268C26.3743 40.8892 26.6769 40.1678 27.2821 39.5627C27.8872 38.9575 28.6086 38.6549 29.4462 38.6549H34.5659C35.4035 38.6549 36.1249 38.9575 36.7301 39.5627C37.3352 40.1678 37.6378 40.8892 37.6378 41.7268V48.8944H48.9012V37.631H43.8997C43.2338 37.631 42.6256 37.4325 42.0751 37.0356C41.5245 36.6386 41.1469 36.1072 40.9421 35.4413L40.3671 33.6535L23.645 33.5352L23.0701 35.4413C22.8653 36.1072 22.4876 36.6386 21.9371 37.0356C21.3865 37.4325 20.7783 37.631 20.1124 37.631H15.1109V48.8944Z" fill="#0146B3"/>
</g>
</svg>
