<svg width="64" height="64" viewBox="0 0 64 64" fill="none" xmlns="http://www.w3.org/2000/svg">
<rect width="64" height="64" rx="8" transform="matrix(-1 0 0 1 64 0)" fill="white"/>
<mask id="mask0_2368_204" style="mask-type:alpha" maskUnits="userSpaceOnUse" x="7" y="7" width="50" height="50">
<rect x="7.42969" y="7.42383" width="49.1495" height="49.1495" fill="#D9D9D9"/>
</mask>
<g mask="url(#mask0_2368_204)">
<path d="M31.9824 47.7872C31.5439 47.7872 31.1034 47.7085 30.661 47.5511C30.2187 47.3935 29.8294 47.1467 29.4932 46.8108L26.5514 44.1368C22.9205 40.826 19.6787 37.5736 16.826 34.3796C13.9732 31.1855 12.5469 27.7638 12.5469 24.1145C12.5469 21.2082 13.5268 18.7749 15.4866 16.8148C17.4468 14.8549 19.8801 13.875 22.7864 13.875C24.4377 13.875 26.0688 14.2557 27.6798 15.0172C29.2905 15.7787 30.7312 17.0153 32.0019 18.727C33.2726 17.0153 34.7133 15.7787 36.324 15.0172C37.935 14.2557 39.5662 13.875 41.2174 13.875C44.1237 13.875 46.557 14.8549 48.5172 16.8148C50.477 18.7749 51.4569 21.2082 51.4569 24.1145C51.4569 27.8034 50.0063 31.2632 47.1051 34.4937C44.204 37.7243 40.9693 40.9491 37.4012 44.168L34.4906 46.8108C34.1548 47.1467 33.7624 47.3935 33.3136 47.5511C32.8644 47.7085 32.4207 47.7872 31.9824 47.7872ZM30.529 21.8382C29.421 20.1501 28.2546 18.9128 27.0296 18.1264C25.805 17.34 24.3905 16.9468 22.7864 16.9468C20.7385 16.9468 19.0319 17.6295 17.6666 18.9947C16.3014 20.36 15.6187 22.0666 15.6187 24.1145C15.6187 25.7579 16.1484 27.4763 17.2079 29.2696C18.2673 31.0628 19.5971 32.8455 21.1972 34.6176C22.7973 36.3901 24.5308 38.1216 26.3978 39.8121C28.2645 41.503 29.9946 43.0744 31.5882 44.5264C31.7063 44.6315 31.8442 44.6841 32.0019 44.6841C32.1596 44.6841 32.2975 44.6315 32.4156 44.5264C34.0092 43.0744 35.7393 41.503 37.606 39.8121C39.473 38.1216 41.2065 36.3901 42.8066 34.6176C44.4067 32.8455 45.7365 31.0628 46.7959 29.2696C47.8554 27.4763 48.3851 25.7579 48.3851 24.1145C48.3851 22.0666 47.7025 20.36 46.3372 18.9947C44.9719 17.6295 43.2653 16.9468 41.2174 16.9468C39.6133 16.9468 38.1988 17.34 36.9742 18.1264C35.7492 18.9128 34.5828 20.1501 33.4749 21.8382C33.3015 22.1007 33.0835 22.2977 32.8211 22.4291C32.5586 22.5601 32.2855 22.6257 32.0019 22.6257C31.7183 22.6257 31.4452 22.5601 31.1827 22.4291C30.9203 22.2977 30.7023 22.1007 30.529 21.8382Z" fill="#0146B3"/>
</g>
</svg>
