<svg width="64" height="64" viewBox="0 0 64 64" fill="none" xmlns="http://www.w3.org/2000/svg">
<rect width="64" height="64" rx="8" transform="matrix(-1 0 0 1 64 0)" fill="white"/>
<mask id="mask0_2368_209" style="mask-type:alpha" maskUnits="userSpaceOnUse" x="7" y="7" width="50" height="50">
<rect x="7.42969" y="7.42383" width="49.1495" height="49.1495" fill="#D9D9D9"/>
</mask>
<g mask="url(#mask0_2368_209)">
<path d="M24.9374 54.2301C24.3493 54.2301 23.6694 53.9517 22.8977 53.395C22.1256 52.8387 21.4271 52.1666 20.8022 51.3789L16.86 46.3103C16.6395 46.0346 16.5484 45.7345 16.5866 45.4103C16.6245 45.086 16.7813 44.8137 17.0571 44.5932C17.3329 44.3727 17.638 44.2848 17.9725 44.3295C18.3073 44.3739 18.585 44.534 18.8055 44.8097L20.5032 46.9954L26.7652 42.5335L30.2384 24.7521L25.3705 26.7176V31.9986C25.3705 32.4345 25.2236 32.7993 24.9297 33.0932C24.6355 33.3874 24.2705 33.5345 23.8346 33.5345C23.3991 33.5345 23.0342 33.3874 22.74 33.0932C22.4461 32.7993 22.2992 32.4345 22.2992 31.9986V25.9496C22.2992 25.5793 22.4088 25.2399 22.6279 24.9313C22.847 24.6228 23.1247 24.3898 23.4609 24.2325L30.412 21.3301C31.4646 20.8785 32.2337 20.5845 32.7194 20.448C33.2051 20.3114 33.6567 20.2432 34.0741 20.2432C34.6991 20.2432 35.2742 20.4046 35.7995 20.7275C36.3244 21.0504 36.7654 21.4862 37.1224 22.0351L39.1508 25.2605C39.941 26.4654 40.9419 27.5193 42.1536 28.4225C43.3652 29.3259 44.7614 29.9377 46.342 30.2579C46.7779 30.3681 47.1462 30.5704 47.4469 30.8646C47.7472 31.1585 47.8974 31.5233 47.8974 31.9592C47.8974 32.395 47.7472 32.7514 47.4469 33.0282C47.1462 33.3053 46.7885 33.4163 46.3738 33.361C44.4911 33.0749 42.7313 32.4324 41.0943 31.4334C39.4573 30.4344 38.0559 29.1222 36.89 27.4968L35.3658 35.1964L39.1508 38.8155C39.3423 39.0074 39.4828 39.2181 39.5722 39.4478C39.6613 39.6775 39.7058 39.9158 39.7058 40.1625V51.7685C40.4673 51.7477 41.0883 51.6821 41.5689 51.5719C42.0495 51.4617 42.5536 51.2673 43.0813 50.9888C43.2441 50.9075 43.3917 50.8399 43.5241 50.786C43.6569 50.7324 43.7849 50.7056 43.9081 50.7056C44.2679 50.7056 44.5633 50.8316 44.7943 51.0835C45.0254 51.3354 45.1409 51.6098 45.1409 51.9067C45.1409 52.1535 45.078 52.3747 44.952 52.5703C44.8257 52.7658 44.6327 52.9358 44.373 53.0802C43.677 53.4764 42.9649 53.7638 42.2365 53.9423C41.5078 54.1212 40.6972 54.2106 39.8046 54.2106H33.5621C33.2106 54.2106 32.9193 54.0951 32.6882 53.864C32.4571 53.6329 32.3416 53.3415 32.3416 52.9896C32.3416 52.6377 32.4571 52.3462 32.6882 52.1151C32.9193 51.884 33.2106 51.7685 33.5621 51.7685H36.6345V42.0292L31.5066 37.126L29.8488 43.644C29.7805 43.8566 29.6879 44.0536 29.5708 44.2348C29.4541 44.416 29.2998 44.5683 29.108 44.6915L22.4328 49.4452L22.9013 50.0831C23.2481 50.5582 23.621 50.929 24.02 51.1956C24.419 51.4622 24.864 51.6808 25.3552 51.8514C25.6098 51.9828 25.8093 52.1325 25.9537 52.3004C26.0981 52.4684 26.1702 52.6941 26.1702 52.9778C26.1702 53.3164 26.0494 53.6097 25.8078 53.8579C25.5665 54.106 25.2763 54.2301 24.9374 54.2301ZM37.146 18.3724C36.1118 18.3724 35.2231 18.0009 34.4801 17.2578C33.7371 16.5148 33.3655 15.626 33.3655 14.5915C33.3655 13.5569 33.7371 12.6682 34.4801 11.9251C35.2231 11.1821 36.1118 10.8105 37.146 10.8105C38.1805 10.8105 39.0693 11.1821 39.8123 11.9251C40.5554 12.6682 40.9269 13.5569 40.9269 14.5915C40.9269 15.626 40.5554 16.5148 39.8123 17.2578C39.0693 18.0009 38.1805 18.3724 37.146 18.3724Z" fill="#0146B3"/>
</g>
</svg>
